<?xml version="1.0" encoding="UTF-8" standalone="no"?>
<!DOCTYPE svg PUBLIC "-//W3C//DTD SVG 1.1//EN" "http://www.w3.org/Graphics/SVG/1.1/DTD/svg11.dtd">
<svg width="100%" height="100%" viewBox="0 0 4504 1994" version="1.1" xmlns="http://www.w3.org/2000/svg" xmlns:xlink="http://www.w3.org/1999/xlink" xml:space="preserve" xmlns:serif="http://www.serif.com/" style="fill-rule:evenodd;clip-rule:evenodd;stroke-miterlimit:2;">
    <g transform="matrix(1,0,0,1,47.658148,-40.755454)">
        <g>
            <g transform="matrix(4.206863,0,0,4.227966,-4870.286093,30.846421)">
                <clipPath id="_clip1">
                    <path d="M1378.29,178.097L1417.53,178.097L1417.53,282.351L1378.29,282.351L1378.29,314.24L1494.8,314.24L1494.8,282.351L1455.56,282.351L1455.56,178.097L1494.8,178.097L1494.8,146.209L1378.29,146.209L1378.29,178.097Z"/>
                </clipPath>
                <g clip-path="url(#_clip1)">
                    <path d="M1551.31,470.804L1155.14,143.431" style="fill:none;stroke:rgb(103,62,152);stroke-width:0.43px;"/>
                    <path d="M1570.32,466.787L1174.15,139.414" style="fill:none;stroke:rgb(103,62,152);stroke-width:0.43px;"/>
                    <path d="M1589.32,462.769L1193.15,135.396" style="fill:none;stroke:rgb(103,62,152);stroke-width:0.43px;"/>
                    <path d="M1608.32,458.752L1212.15,131.378" style="fill:none;stroke:rgb(103,62,152);stroke-width:0.43px;"/>
                    <path d="M1627.33,454.734L1231.16,127.361" style="fill:none;stroke:rgb(103,62,152);stroke-width:0.43px;"/>
                    <path d="M1646.33,450.717L1250.16,123.344" style="fill:none;stroke:rgb(103,62,152);stroke-width:0.43px;"/>
                    <path d="M1665.33,446.699L1269.16,119.326" style="fill:none;stroke:rgb(132,71,156);stroke-width:0.43px;"/>
                    <path d="M1684.33,442.682L1288.17,115.309" style="fill:none;stroke:rgb(132,71,156);stroke-width:0.43px;"/>
                    <path d="M1703.34,438.664L1307.17,111.292" style="fill:none;stroke:rgb(132,71,156);stroke-width:0.43px;"/>
                    <path d="M1722.34,434.647L1326.17,107.274" style="fill:none;stroke:rgb(132,71,156);stroke-width:0.43px;"/>
                    <path d="M1741.34,430.629L1345.17,103.256" style="fill:none;stroke:rgb(132,71,156);stroke-width:0.43px;"/>
                    <path d="M1760.35,426.612L1364.18,99.239" style="fill:none;stroke:rgb(132,71,156);stroke-width:0.43px;"/>
                    <path d="M1779.35,422.594L1383.18,95.222" style="fill:none;stroke:rgb(132,71,156);stroke-width:0.43px;"/>
                    <path d="M1798.35,418.577L1402.18,91.204" style="fill:none;stroke:rgb(132,71,156);stroke-width:0.43px;"/>
                    <path d="M1817.36,414.56L1421.19,87.187" style="fill:none;stroke:rgb(137,69,154);stroke-width:0.43px;"/>
                    <path d="M1836.36,410.542L1440.19,83.169" style="fill:none;stroke:rgb(137,69,154);stroke-width:0.43px;"/>
                    <path d="M1855.36,406.524L1459.19,79.152" style="fill:none;stroke:rgb(137,69,154);stroke-width:0.43px;"/>
                    <path d="M1874.37,402.507L1478.2,75.134" style="fill:none;stroke:rgb(137,69,154);stroke-width:0.43px;"/>
                    <path d="M1893.37,398.489L1497.2,71.117" style="fill:none;stroke:rgb(137,69,154);stroke-width:0.43px;"/>
                    <path d="M1912.37,394.472L1516.2,67.099" style="fill:none;stroke:rgb(137,69,154);stroke-width:0.43px;"/>
                    <path d="M1931.38,390.455L1535.21,63.082" style="fill:none;stroke:rgb(137,69,154);stroke-width:0.43px;"/>
                    <path d="M1950.38,386.437L1554.21,59.064" style="fill:none;stroke:rgb(137,69,154);stroke-width:0.43px;"/>
                    <path d="M1969.38,382.42L1573.21,55.047" style="fill:none;stroke:rgb(184,74,155);stroke-width:0.43px;"/>
                    <path d="M1988.38,378.402L1592.22,51.03" style="fill:none;stroke:rgb(184,74,155);stroke-width:0.43px;"/>
                    <path d="M2007.39,374.385L1611.22,47.012" style="fill:none;stroke:rgb(184,74,155);stroke-width:0.43px;"/>
                    <path d="M2026.39,370.367L1630.22,42.994" style="fill:none;stroke:rgb(184,74,155);stroke-width:0.43px;"/>
                    <path d="M2045.39,366.35L1649.22,38.977" style="fill:none;stroke:rgb(184,74,155);stroke-width:0.43px;"/>
                    <path d="M2064.399,362.332L1668.23,34.96" style="fill:none;stroke:rgb(184,74,155);stroke-width:0.43px;"/>
                    <path d="M2083.399,358.315L1687.23,30.942" style="fill:none;stroke:rgb(238,40,124);stroke-width:0.43px;"/>
                    <path d="M2102.4,354.297L1706.23,26.925" style="fill:none;stroke:rgb(238,40,124);stroke-width:0.43px;"/>
                    <path d="M2121.41,350.28L1725.24,22.907" style="fill:none;stroke:rgb(238,40,124);stroke-width:0.43px;"/>
                    <path d="M2140.41,346.262L1744.24,18.89" style="fill:none;stroke:rgb(238,40,124);stroke-width:0.43px;"/>
                    <path d="M2159.41,342.245L1763.24,14.872" style="fill:none;stroke:rgb(238,40,124);stroke-width:0.43px;"/>
                    <path d="M2178.42,338.228L1782.25,10.855" style="fill:none;stroke:rgb(238,40,124);stroke-width:0.43px;"/>
                    <path d="M2197.42,334.21L1801.25,6.837" style="fill:none;stroke:rgb(238,40,124);stroke-width:0.43px;"/>
                    <path d="M2216.42,330.192L1820.25,2.82" style="fill:none;stroke:rgb(238,40,124);stroke-width:0.43px;"/>
                    <path d="M1543.02,473.297L1146.85,145.924" style="fill:none;stroke:rgb(103,62,152);stroke-width:0.43px;"/>
                    <path d="M1562.03,469.28L1165.86,141.907" style="fill:none;stroke:rgb(103,62,152);stroke-width:0.43px;"/>
                    <path d="M1581.03,465.262L1184.86,137.89" style="fill:none;stroke:rgb(103,62,152);stroke-width:0.43px;"/>
                    <path d="M1600.03,461.245L1203.86,133.872" style="fill:none;stroke:rgb(103,62,152);stroke-width:0.43px;"/>
                    <path d="M1619.04,457.228L1222.87,129.855" style="fill:none;stroke:rgb(103,62,152);stroke-width:0.43px;"/>
                    <path d="M1638.04,453.21L1241.87,125.837" style="fill:none;stroke:rgb(103,62,152);stroke-width:0.43px;"/>
                    <path d="M1657.04,449.192L1260.87,121.82" style="fill:none;stroke:rgb(103,62,152);stroke-width:0.43px;"/>
                    <path d="M1676.05,445.175L1279.88,117.802" style="fill:none;stroke:rgb(132,71,156);stroke-width:0.43px;"/>
                    <path d="M1695.05,441.158L1298.88,113.785" style="fill:none;stroke:rgb(132,71,156);stroke-width:0.43px;"/>
                    <path d="M1714.05,437.14L1317.88,109.767" style="fill:none;stroke:rgb(132,71,156);stroke-width:0.43px;"/>
                    <path d="M1733.05,433.123L1336.89,105.75" style="fill:none;stroke:rgb(132,71,156);stroke-width:0.43px;"/>
                    <path d="M1752.06,429.105L1355.89,101.733" style="fill:none;stroke:rgb(132,71,156);stroke-width:0.43px;"/>
                    <path d="M1771.06,425.088L1374.89,97.715" style="fill:none;stroke:rgb(132,71,156);stroke-width:0.43px;"/>
                    <path d="M1790.06,421.07L1393.9,93.698" style="fill:none;stroke:rgb(132,71,156);stroke-width:0.43px;"/>
                    <path d="M1809.07,417.053L1412.9,89.68" style="fill:none;stroke:rgb(137,69,154);stroke-width:0.43px;"/>
                    <path d="M1828.07,413.035L1431.9,85.663" style="fill:none;stroke:rgb(137,69,154);stroke-width:0.43px;"/>
                    <path d="M1847.07,409.018L1450.9,81.645" style="fill:none;stroke:rgb(137,69,154);stroke-width:0.43px;"/>
                    <path d="M1866.08,405.001L1469.91,77.628" style="fill:none;stroke:rgb(137,69,154);stroke-width:0.43px;"/>
                    <path d="M1885.08,400.983L1488.91,73.61" style="fill:none;stroke:rgb(137,69,154);stroke-width:0.43px;"/>
                    <path d="M1904.08,396.965L1507.91,69.593" style="fill:none;stroke:rgb(137,69,154);stroke-width:0.43px;"/>
                    <path d="M1923.09,392.948L1526.92,65.576" style="fill:none;stroke:rgb(137,69,154);stroke-width:0.43px;"/>
                    <path d="M1942.09,388.931L1545.92,61.558" style="fill:none;stroke:rgb(137,69,154);stroke-width:0.43px;"/>
                    <path d="M1961.09,384.913L1564.92,57.54" style="fill:none;stroke:rgb(184,74,155);stroke-width:0.43px;"/>
                    <path d="M1980.1,380.896L1583.93,53.523" style="fill:none;stroke:rgb(184,74,155);stroke-width:0.43px;"/>
                    <path d="M1999.1,376.878L1602.93,49.506" style="fill:none;stroke:rgb(184,74,155);stroke-width:0.43px;"/>
                    <path d="M2018.1,372.86L1621.93,45.488" style="fill:none;stroke:rgb(184,74,155);stroke-width:0.43px;"/>
                    <path d="M2037.1,368.843L1640.94,41.471" style="fill:none;stroke:rgb(184,74,155);stroke-width:0.43px;"/>
                    <path d="M2056.11,364.826L1659.94,37.453" style="fill:none;stroke:rgb(184,74,155);stroke-width:0.43px;"/>
                    <path d="M2075.11,360.808L1678.94,33.435" style="fill:none;stroke:rgb(238,40,124);stroke-width:0.43px;"/>
                    <path d="M2094.11,356.791L1697.95,29.418" style="fill:none;stroke:rgb(238,40,124);stroke-width:0.43px;"/>
                    <path d="M2113.12,352.774L1716.95,25.401" style="fill:none;stroke:rgb(238,40,124);stroke-width:0.43px;"/>
                    <path d="M2132.12,348.756L1735.95,21.383" style="fill:none;stroke:rgb(238,40,124);stroke-width:0.43px;"/>
                    <path d="M2151.12,344.738L1754.95,17.366" style="fill:none;stroke:rgb(238,40,124);stroke-width:0.43px;"/>
                    <path d="M2170.13,340.721L1773.96,13.348" style="fill:none;stroke:rgb(238,40,124);stroke-width:0.43px;"/>
                    <path d="M2189.13,336.703L1792.96,9.331" style="fill:none;stroke:rgb(238,40,124);stroke-width:0.43px;"/>
                    <path d="M2208.13,332.686L1811.96,5.313" style="fill:none;stroke:rgb(238,40,124);stroke-width:0.43px;"/>
                </g>
            </g>
            <g transform="matrix(4.206863,0,0,4.227966,-4870.286093,30.846421)">
                <clipPath id="_clip2">
                    <path d="M1591.14,284.655L1570.88,284.655L1570.88,241.004L1591.14,241.004C1612.05,241.004 1621.71,247.095 1621.71,261.841C1621.71,277.162 1611.83,284.655 1591.14,284.655ZM1570.88,175.793L1587.97,175.793C1605.65,175.793 1613.84,180.636 1613.84,193.176C1613.84,205.86 1606.15,213.654 1587.69,213.654L1570.88,213.654L1570.88,175.793ZM1622.26,225.182L1622.26,224.151C1642,218.994 1650.99,202.923 1650.99,187.837C1650.99,155.766 1624.36,146.209 1589.44,146.209L1532.92,146.209L1532.92,314.24L1594.23,314.24C1630.83,314.24 1658.85,298.926 1658.85,264.733C1658.85,242.271 1646.27,229.608 1622.26,225.182Z"/>
                </clipPath>
                <g clip-path="url(#_clip2)">
                    <path d="M1551.31,470.804L1155.14,143.431" style="fill:none;stroke:rgb(103,62,152);stroke-width:0.43px;"/>
                    <path d="M1570.32,466.787L1174.15,139.414" style="fill:none;stroke:rgb(103,62,152);stroke-width:0.43px;"/>
                    <path d="M1589.32,462.769L1193.15,135.396" style="fill:none;stroke:rgb(103,62,152);stroke-width:0.43px;"/>
                    <path d="M1608.32,458.752L1212.15,131.378" style="fill:none;stroke:rgb(103,62,152);stroke-width:0.43px;"/>
                    <path d="M1627.33,454.734L1231.16,127.361" style="fill:none;stroke:rgb(103,62,152);stroke-width:0.43px;"/>
                    <path d="M1646.33,450.717L1250.16,123.344" style="fill:none;stroke:rgb(103,62,152);stroke-width:0.43px;"/>
                    <path d="M1665.33,446.699L1269.16,119.326" style="fill:none;stroke:rgb(132,71,156);stroke-width:0.43px;"/>
                    <path d="M1684.33,442.682L1288.17,115.309" style="fill:none;stroke:rgb(132,71,156);stroke-width:0.43px;"/>
                    <path d="M1703.34,438.664L1307.17,111.292" style="fill:none;stroke:rgb(132,71,156);stroke-width:0.43px;"/>
                    <path d="M1722.34,434.647L1326.17,107.274" style="fill:none;stroke:rgb(132,71,156);stroke-width:0.43px;"/>
                    <path d="M1741.34,430.629L1345.17,103.256" style="fill:none;stroke:rgb(132,71,156);stroke-width:0.43px;"/>
                    <path d="M1760.35,426.612L1364.18,99.239" style="fill:none;stroke:rgb(132,71,156);stroke-width:0.43px;"/>
                    <path d="M1779.35,422.594L1383.18,95.222" style="fill:none;stroke:rgb(132,71,156);stroke-width:0.43px;"/>
                    <path d="M1798.35,418.577L1402.18,91.204" style="fill:none;stroke:rgb(132,71,156);stroke-width:0.43px;"/>
                    <path d="M1817.36,414.56L1421.19,87.187" style="fill:none;stroke:rgb(137,69,154);stroke-width:0.43px;"/>
                    <path d="M1836.36,410.542L1440.19,83.169" style="fill:none;stroke:rgb(137,69,154);stroke-width:0.43px;"/>
                    <path d="M1855.36,406.524L1459.19,79.152" style="fill:none;stroke:rgb(137,69,154);stroke-width:0.43px;"/>
                    <path d="M1874.37,402.507L1478.2,75.134" style="fill:none;stroke:rgb(137,69,154);stroke-width:0.43px;"/>
                    <path d="M1893.37,398.489L1497.2,71.117" style="fill:none;stroke:rgb(137,69,154);stroke-width:0.43px;"/>
                    <path d="M1912.37,394.472L1516.2,67.099" style="fill:none;stroke:rgb(137,69,154);stroke-width:0.43px;"/>
                    <path d="M1931.38,390.455L1535.21,63.082" style="fill:none;stroke:rgb(137,69,154);stroke-width:0.43px;"/>
                    <path d="M1950.38,386.437L1554.21,59.064" style="fill:none;stroke:rgb(137,69,154);stroke-width:0.43px;"/>
                    <path d="M1969.38,382.42L1573.21,55.047" style="fill:none;stroke:rgb(184,74,155);stroke-width:0.43px;"/>
                    <path d="M1988.38,378.402L1592.22,51.03" style="fill:none;stroke:rgb(184,74,155);stroke-width:0.43px;"/>
                    <path d="M2007.39,374.385L1611.22,47.012" style="fill:none;stroke:rgb(184,74,155);stroke-width:0.43px;"/>
                    <path d="M2026.39,370.367L1630.22,42.994" style="fill:none;stroke:rgb(184,74,155);stroke-width:0.43px;"/>
                    <path d="M2045.39,366.35L1649.22,38.977" style="fill:none;stroke:rgb(184,74,155);stroke-width:0.43px;"/>
                    <path d="M2064.399,362.332L1668.23,34.96" style="fill:none;stroke:rgb(184,74,155);stroke-width:0.43px;"/>
                    <path d="M2083.399,358.315L1687.23,30.942" style="fill:none;stroke:rgb(238,40,124);stroke-width:0.43px;"/>
                    <path d="M2102.4,354.297L1706.23,26.925" style="fill:none;stroke:rgb(238,40,124);stroke-width:0.43px;"/>
                    <path d="M2121.41,350.28L1725.24,22.907" style="fill:none;stroke:rgb(238,40,124);stroke-width:0.43px;"/>
                    <path d="M2140.41,346.262L1744.24,18.89" style="fill:none;stroke:rgb(238,40,124);stroke-width:0.43px;"/>
                    <path d="M2159.41,342.245L1763.24,14.872" style="fill:none;stroke:rgb(238,40,124);stroke-width:0.43px;"/>
                    <path d="M2178.42,338.228L1782.25,10.855" style="fill:none;stroke:rgb(238,40,124);stroke-width:0.43px;"/>
                    <path d="M2197.42,334.21L1801.25,6.837" style="fill:none;stroke:rgb(238,40,124);stroke-width:0.43px;"/>
                    <path d="M2216.42,330.192L1820.25,2.82" style="fill:none;stroke:rgb(238,40,124);stroke-width:0.43px;"/>
                    <path d="M1543.02,473.297L1146.85,145.924" style="fill:none;stroke:rgb(103,62,152);stroke-width:0.43px;"/>
                    <path d="M1562.03,469.28L1165.86,141.907" style="fill:none;stroke:rgb(103,62,152);stroke-width:0.43px;"/>
                    <path d="M1581.03,465.262L1184.86,137.89" style="fill:none;stroke:rgb(103,62,152);stroke-width:0.43px;"/>
                    <path d="M1600.03,461.245L1203.86,133.872" style="fill:none;stroke:rgb(103,62,152);stroke-width:0.43px;"/>
                    <path d="M1619.04,457.228L1222.87,129.855" style="fill:none;stroke:rgb(103,62,152);stroke-width:0.43px;"/>
                    <path d="M1638.04,453.21L1241.87,125.837" style="fill:none;stroke:rgb(103,62,152);stroke-width:0.43px;"/>
                    <path d="M1657.04,449.192L1260.87,121.82" style="fill:none;stroke:rgb(103,62,152);stroke-width:0.43px;"/>
                    <path d="M1676.05,445.175L1279.88,117.802" style="fill:none;stroke:rgb(132,71,156);stroke-width:0.43px;"/>
                    <path d="M1695.05,441.158L1298.88,113.785" style="fill:none;stroke:rgb(132,71,156);stroke-width:0.43px;"/>
                    <path d="M1714.05,437.14L1317.88,109.767" style="fill:none;stroke:rgb(132,71,156);stroke-width:0.43px;"/>
                    <path d="M1733.05,433.123L1336.89,105.75" style="fill:none;stroke:rgb(132,71,156);stroke-width:0.43px;"/>
                    <path d="M1752.06,429.105L1355.89,101.733" style="fill:none;stroke:rgb(132,71,156);stroke-width:0.43px;"/>
                    <path d="M1771.06,425.088L1374.89,97.715" style="fill:none;stroke:rgb(132,71,156);stroke-width:0.43px;"/>
                    <path d="M1790.06,421.07L1393.9,93.698" style="fill:none;stroke:rgb(132,71,156);stroke-width:0.43px;"/>
                    <path d="M1809.07,417.053L1412.9,89.68" style="fill:none;stroke:rgb(137,69,154);stroke-width:0.43px;"/>
                    <path d="M1828.07,413.035L1431.9,85.663" style="fill:none;stroke:rgb(137,69,154);stroke-width:0.43px;"/>
                    <path d="M1847.07,409.018L1450.9,81.645" style="fill:none;stroke:rgb(137,69,154);stroke-width:0.43px;"/>
                    <path d="M1866.08,405.001L1469.91,77.628" style="fill:none;stroke:rgb(137,69,154);stroke-width:0.43px;"/>
                    <path d="M1885.08,400.983L1488.91,73.61" style="fill:none;stroke:rgb(137,69,154);stroke-width:0.43px;"/>
                    <path d="M1904.08,396.965L1507.91,69.593" style="fill:none;stroke:rgb(137,69,154);stroke-width:0.43px;"/>
                    <path d="M1923.09,392.948L1526.92,65.576" style="fill:none;stroke:rgb(137,69,154);stroke-width:0.43px;"/>
                    <path d="M1942.09,388.931L1545.92,61.558" style="fill:none;stroke:rgb(137,69,154);stroke-width:0.43px;"/>
                    <path d="M1961.09,384.913L1564.92,57.54" style="fill:none;stroke:rgb(184,74,155);stroke-width:0.43px;"/>
                    <path d="M1980.1,380.896L1583.93,53.523" style="fill:none;stroke:rgb(184,74,155);stroke-width:0.43px;"/>
                    <path d="M1999.1,376.878L1602.93,49.506" style="fill:none;stroke:rgb(184,74,155);stroke-width:0.43px;"/>
                    <path d="M2018.1,372.86L1621.93,45.488" style="fill:none;stroke:rgb(184,74,155);stroke-width:0.43px;"/>
                    <path d="M2037.1,368.843L1640.94,41.471" style="fill:none;stroke:rgb(184,74,155);stroke-width:0.43px;"/>
                    <path d="M2056.11,364.826L1659.94,37.453" style="fill:none;stroke:rgb(184,74,155);stroke-width:0.43px;"/>
                    <path d="M2075.11,360.808L1678.94,33.435" style="fill:none;stroke:rgb(238,40,124);stroke-width:0.43px;"/>
                    <path d="M2094.11,356.791L1697.95,29.418" style="fill:none;stroke:rgb(238,40,124);stroke-width:0.43px;"/>
                    <path d="M2113.12,352.774L1716.95,25.401" style="fill:none;stroke:rgb(238,40,124);stroke-width:0.43px;"/>
                    <path d="M2132.12,348.756L1735.95,21.383" style="fill:none;stroke:rgb(238,40,124);stroke-width:0.43px;"/>
                    <path d="M2151.12,344.738L1754.95,17.366" style="fill:none;stroke:rgb(238,40,124);stroke-width:0.43px;"/>
                    <path d="M2170.13,340.721L1773.96,13.348" style="fill:none;stroke:rgb(238,40,124);stroke-width:0.43px;"/>
                    <path d="M2189.13,336.703L1792.96,9.331" style="fill:none;stroke:rgb(238,40,124);stroke-width:0.43px;"/>
                    <path d="M2208.13,332.686L1811.96,5.313" style="fill:none;stroke:rgb(238,40,124);stroke-width:0.43px;"/>
                </g>
            </g>
            <g transform="matrix(4.206863,0,0,4.227966,-4870.286093,30.846421)">
                <clipPath id="_clip3">
                    <path d="M1687.71,178.097L1726.95,178.097L1726.95,282.351L1687.71,282.351L1687.71,314.24L1804.22,314.24L1804.22,282.351L1764.98,282.351L1764.98,178.097L1804.22,178.097L1804.22,146.209L1687.71,146.209L1687.71,178.097Z"/>
                </clipPath>
                <g clip-path="url(#_clip3)">
                    <path d="M1551.31,470.804L1155.14,143.431" style="fill:none;stroke:rgb(103,62,152);stroke-width:0.43px;"/>
                    <path d="M1570.32,466.787L1174.15,139.414" style="fill:none;stroke:rgb(103,62,152);stroke-width:0.43px;"/>
                    <path d="M1589.32,462.769L1193.15,135.396" style="fill:none;stroke:rgb(103,62,152);stroke-width:0.43px;"/>
                    <path d="M1608.32,458.752L1212.15,131.378" style="fill:none;stroke:rgb(103,62,152);stroke-width:0.43px;"/>
                    <path d="M1627.33,454.734L1231.16,127.361" style="fill:none;stroke:rgb(103,62,152);stroke-width:0.43px;"/>
                    <path d="M1646.33,450.717L1250.16,123.344" style="fill:none;stroke:rgb(103,62,152);stroke-width:0.43px;"/>
                    <path d="M1665.33,446.699L1269.16,119.326" style="fill:none;stroke:rgb(132,71,156);stroke-width:0.43px;"/>
                    <path d="M1684.33,442.682L1288.17,115.309" style="fill:none;stroke:rgb(132,71,156);stroke-width:0.43px;"/>
                    <path d="M1703.34,438.664L1307.17,111.292" style="fill:none;stroke:rgb(132,71,156);stroke-width:0.43px;"/>
                    <path d="M1722.34,434.647L1326.17,107.274" style="fill:none;stroke:rgb(132,71,156);stroke-width:0.43px;"/>
                    <path d="M1741.34,430.629L1345.17,103.256" style="fill:none;stroke:rgb(132,71,156);stroke-width:0.43px;"/>
                    <path d="M1760.35,426.612L1364.18,99.239" style="fill:none;stroke:rgb(132,71,156);stroke-width:0.43px;"/>
                    <path d="M1779.35,422.594L1383.18,95.222" style="fill:none;stroke:rgb(132,71,156);stroke-width:0.43px;"/>
                    <path d="M1798.35,418.577L1402.18,91.204" style="fill:none;stroke:rgb(132,71,156);stroke-width:0.43px;"/>
                    <path d="M1817.36,414.56L1421.19,87.187" style="fill:none;stroke:rgb(137,69,154);stroke-width:0.43px;"/>
                    <path d="M1836.36,410.542L1440.19,83.169" style="fill:none;stroke:rgb(137,69,154);stroke-width:0.43px;"/>
                    <path d="M1855.36,406.524L1459.19,79.152" style="fill:none;stroke:rgb(137,69,154);stroke-width:0.43px;"/>
                    <path d="M1874.37,402.507L1478.2,75.134" style="fill:none;stroke:rgb(137,69,154);stroke-width:0.43px;"/>
                    <path d="M1893.37,398.489L1497.2,71.117" style="fill:none;stroke:rgb(137,69,154);stroke-width:0.43px;"/>
                    <path d="M1912.37,394.472L1516.2,67.099" style="fill:none;stroke:rgb(137,69,154);stroke-width:0.43px;"/>
                    <path d="M1931.38,390.455L1535.21,63.082" style="fill:none;stroke:rgb(137,69,154);stroke-width:0.43px;"/>
                    <path d="M1950.38,386.437L1554.21,59.064" style="fill:none;stroke:rgb(137,69,154);stroke-width:0.43px;"/>
                    <path d="M1969.38,382.42L1573.21,55.047" style="fill:none;stroke:rgb(184,74,155);stroke-width:0.43px;"/>
                    <path d="M1988.38,378.402L1592.22,51.03" style="fill:none;stroke:rgb(184,74,155);stroke-width:0.43px;"/>
                    <path d="M2007.39,374.385L1611.22,47.012" style="fill:none;stroke:rgb(184,74,155);stroke-width:0.43px;"/>
                    <path d="M2026.39,370.367L1630.22,42.994" style="fill:none;stroke:rgb(184,74,155);stroke-width:0.43px;"/>
                    <path d="M2045.39,366.35L1649.22,38.977" style="fill:none;stroke:rgb(184,74,155);stroke-width:0.43px;"/>
                    <path d="M2064.399,362.332L1668.23,34.96" style="fill:none;stroke:rgb(184,74,155);stroke-width:0.43px;"/>
                    <path d="M2083.399,358.315L1687.23,30.942" style="fill:none;stroke:rgb(238,40,124);stroke-width:0.43px;"/>
                    <path d="M2102.4,354.297L1706.23,26.925" style="fill:none;stroke:rgb(238,40,124);stroke-width:0.43px;"/>
                    <path d="M2121.41,350.28L1725.24,22.907" style="fill:none;stroke:rgb(238,40,124);stroke-width:0.43px;"/>
                    <path d="M2140.41,346.262L1744.24,18.89" style="fill:none;stroke:rgb(238,40,124);stroke-width:0.43px;"/>
                    <path d="M2159.41,342.245L1763.24,14.872" style="fill:none;stroke:rgb(238,40,124);stroke-width:0.43px;"/>
                    <path d="M2178.42,338.228L1782.25,10.855" style="fill:none;stroke:rgb(238,40,124);stroke-width:0.43px;"/>
                    <path d="M2197.42,334.21L1801.25,6.837" style="fill:none;stroke:rgb(238,40,124);stroke-width:0.43px;"/>
                    <path d="M2216.42,330.192L1820.25,2.82" style="fill:none;stroke:rgb(238,40,124);stroke-width:0.43px;"/>
                    <path d="M1543.02,473.297L1146.85,145.924" style="fill:none;stroke:rgb(103,62,152);stroke-width:0.43px;"/>
                    <path d="M1562.03,469.28L1165.86,141.907" style="fill:none;stroke:rgb(103,62,152);stroke-width:0.43px;"/>
                    <path d="M1581.03,465.262L1184.86,137.89" style="fill:none;stroke:rgb(103,62,152);stroke-width:0.43px;"/>
                    <path d="M1600.03,461.245L1203.86,133.872" style="fill:none;stroke:rgb(103,62,152);stroke-width:0.43px;"/>
                    <path d="M1619.04,457.228L1222.87,129.855" style="fill:none;stroke:rgb(103,62,152);stroke-width:0.43px;"/>
                    <path d="M1638.04,453.21L1241.87,125.837" style="fill:none;stroke:rgb(103,62,152);stroke-width:0.43px;"/>
                    <path d="M1657.04,449.192L1260.87,121.82" style="fill:none;stroke:rgb(103,62,152);stroke-width:0.43px;"/>
                    <path d="M1676.05,445.175L1279.88,117.802" style="fill:none;stroke:rgb(132,71,156);stroke-width:0.43px;"/>
                    <path d="M1695.05,441.158L1298.88,113.785" style="fill:none;stroke:rgb(132,71,156);stroke-width:0.43px;"/>
                    <path d="M1714.05,437.14L1317.88,109.767" style="fill:none;stroke:rgb(132,71,156);stroke-width:0.43px;"/>
                    <path d="M1733.05,433.123L1336.89,105.75" style="fill:none;stroke:rgb(132,71,156);stroke-width:0.43px;"/>
                    <path d="M1752.06,429.105L1355.89,101.733" style="fill:none;stroke:rgb(132,71,156);stroke-width:0.43px;"/>
                    <path d="M1771.06,425.088L1374.89,97.715" style="fill:none;stroke:rgb(132,71,156);stroke-width:0.43px;"/>
                    <path d="M1790.06,421.07L1393.9,93.698" style="fill:none;stroke:rgb(132,71,156);stroke-width:0.43px;"/>
                    <path d="M1809.07,417.053L1412.9,89.68" style="fill:none;stroke:rgb(137,69,154);stroke-width:0.43px;"/>
                    <path d="M1828.07,413.035L1431.9,85.663" style="fill:none;stroke:rgb(137,69,154);stroke-width:0.43px;"/>
                    <path d="M1847.07,409.018L1450.9,81.645" style="fill:none;stroke:rgb(137,69,154);stroke-width:0.43px;"/>
                    <path d="M1866.08,405.001L1469.91,77.628" style="fill:none;stroke:rgb(137,69,154);stroke-width:0.43px;"/>
                    <path d="M1885.08,400.983L1488.91,73.61" style="fill:none;stroke:rgb(137,69,154);stroke-width:0.43px;"/>
                    <path d="M1904.08,396.965L1507.91,69.593" style="fill:none;stroke:rgb(137,69,154);stroke-width:0.43px;"/>
                    <path d="M1923.09,392.948L1526.92,65.576" style="fill:none;stroke:rgb(137,69,154);stroke-width:0.43px;"/>
                    <path d="M1942.09,388.931L1545.92,61.558" style="fill:none;stroke:rgb(137,69,154);stroke-width:0.43px;"/>
                    <path d="M1961.09,384.913L1564.92,57.54" style="fill:none;stroke:rgb(184,74,155);stroke-width:0.43px;"/>
                    <path d="M1980.1,380.896L1583.93,53.523" style="fill:none;stroke:rgb(184,74,155);stroke-width:0.43px;"/>
                    <path d="M1999.1,376.878L1602.93,49.506" style="fill:none;stroke:rgb(184,74,155);stroke-width:0.43px;"/>
                    <path d="M2018.1,372.86L1621.93,45.488" style="fill:none;stroke:rgb(184,74,155);stroke-width:0.43px;"/>
                    <path d="M2037.1,368.843L1640.94,41.471" style="fill:none;stroke:rgb(184,74,155);stroke-width:0.43px;"/>
                    <path d="M2056.11,364.826L1659.94,37.453" style="fill:none;stroke:rgb(184,74,155);stroke-width:0.43px;"/>
                    <path d="M2075.11,360.808L1678.94,33.435" style="fill:none;stroke:rgb(238,40,124);stroke-width:0.43px;"/>
                    <path d="M2094.11,356.791L1697.95,29.418" style="fill:none;stroke:rgb(238,40,124);stroke-width:0.43px;"/>
                    <path d="M2113.12,352.774L1716.95,25.401" style="fill:none;stroke:rgb(238,40,124);stroke-width:0.43px;"/>
                    <path d="M2132.12,348.756L1735.95,21.383" style="fill:none;stroke:rgb(238,40,124);stroke-width:0.43px;"/>
                    <path d="M2151.12,344.738L1754.95,17.366" style="fill:none;stroke:rgb(238,40,124);stroke-width:0.43px;"/>
                    <path d="M2170.13,340.721L1773.96,13.348" style="fill:none;stroke:rgb(238,40,124);stroke-width:0.43px;"/>
                    <path d="M2189.13,336.703L1792.96,9.331" style="fill:none;stroke:rgb(238,40,124);stroke-width:0.43px;"/>
                    <path d="M2208.13,332.686L1811.96,5.313" style="fill:none;stroke:rgb(238,40,124);stroke-width:0.43px;"/>
                </g>
            </g>
            <g transform="matrix(4.206863,0,0,4.227966,-4870.286093,30.846421)">
                <clipPath id="_clip4">
                    <path d="M1924.72,146.209L1924.72,205.6C1924.72,225.437 1928.28,248.982 1929.98,266.672L1929.09,266.672L1914.71,229.746L1879.35,146.209L1840.37,146.209L1840.37,314.24L1876.63,314.24L1876.63,254.635C1876.63,234.868 1873.08,212.356 1871.37,193.776L1872.26,193.776L1886.65,230.518L1922,314.24L1960.98,314.24L1960.98,146.209L1924.72,146.209Z"/>
                </clipPath>
                <g clip-path="url(#_clip4)">
                    <path d="M1551.31,470.804L1155.14,143.431" style="fill:none;stroke:rgb(103,62,152);stroke-width:0.43px;"/>
                    <path d="M1570.32,466.787L1174.15,139.414" style="fill:none;stroke:rgb(103,62,152);stroke-width:0.43px;"/>
                    <path d="M1589.32,462.769L1193.15,135.396" style="fill:none;stroke:rgb(103,62,152);stroke-width:0.43px;"/>
                    <path d="M1608.32,458.752L1212.15,131.378" style="fill:none;stroke:rgb(103,62,152);stroke-width:0.43px;"/>
                    <path d="M1627.33,454.734L1231.16,127.361" style="fill:none;stroke:rgb(103,62,152);stroke-width:0.43px;"/>
                    <path d="M1646.33,450.717L1250.16,123.344" style="fill:none;stroke:rgb(103,62,152);stroke-width:0.43px;"/>
                    <path d="M1665.33,446.699L1269.16,119.326" style="fill:none;stroke:rgb(132,71,156);stroke-width:0.43px;"/>
                    <path d="M1684.33,442.682L1288.17,115.309" style="fill:none;stroke:rgb(132,71,156);stroke-width:0.43px;"/>
                    <path d="M1703.34,438.664L1307.17,111.292" style="fill:none;stroke:rgb(132,71,156);stroke-width:0.43px;"/>
                    <path d="M1722.34,434.647L1326.17,107.274" style="fill:none;stroke:rgb(132,71,156);stroke-width:0.43px;"/>
                    <path d="M1741.34,430.629L1345.17,103.256" style="fill:none;stroke:rgb(132,71,156);stroke-width:0.43px;"/>
                    <path d="M1760.35,426.612L1364.18,99.239" style="fill:none;stroke:rgb(132,71,156);stroke-width:0.43px;"/>
                    <path d="M1779.35,422.594L1383.18,95.222" style="fill:none;stroke:rgb(132,71,156);stroke-width:0.43px;"/>
                    <path d="M1798.35,418.577L1402.18,91.204" style="fill:none;stroke:rgb(132,71,156);stroke-width:0.43px;"/>
                    <path d="M1817.36,414.56L1421.19,87.187" style="fill:none;stroke:rgb(137,69,154);stroke-width:0.43px;"/>
                    <path d="M1836.36,410.542L1440.19,83.169" style="fill:none;stroke:rgb(137,69,154);stroke-width:0.43px;"/>
                    <path d="M1855.36,406.524L1459.19,79.152" style="fill:none;stroke:rgb(137,69,154);stroke-width:0.43px;"/>
                    <path d="M1874.37,402.507L1478.2,75.134" style="fill:none;stroke:rgb(137,69,154);stroke-width:0.43px;"/>
                    <path d="M1893.37,398.489L1497.2,71.117" style="fill:none;stroke:rgb(137,69,154);stroke-width:0.43px;"/>
                    <path d="M1912.37,394.472L1516.2,67.099" style="fill:none;stroke:rgb(137,69,154);stroke-width:0.43px;"/>
                    <path d="M1931.38,390.455L1535.21,63.082" style="fill:none;stroke:rgb(137,69,154);stroke-width:0.43px;"/>
                    <path d="M1950.38,386.437L1554.21,59.064" style="fill:none;stroke:rgb(137,69,154);stroke-width:0.43px;"/>
                    <path d="M1969.38,382.42L1573.21,55.047" style="fill:none;stroke:rgb(184,74,155);stroke-width:0.43px;"/>
                    <path d="M1988.38,378.402L1592.22,51.03" style="fill:none;stroke:rgb(184,74,155);stroke-width:0.43px;"/>
                    <path d="M2007.39,374.385L1611.22,47.012" style="fill:none;stroke:rgb(184,74,155);stroke-width:0.43px;"/>
                    <path d="M2026.39,370.367L1630.22,42.994" style="fill:none;stroke:rgb(184,74,155);stroke-width:0.43px;"/>
                    <path d="M2045.39,366.35L1649.22,38.977" style="fill:none;stroke:rgb(184,74,155);stroke-width:0.43px;"/>
                    <path d="M2064.399,362.332L1668.23,34.96" style="fill:none;stroke:rgb(184,74,155);stroke-width:0.43px;"/>
                    <path d="M2083.399,358.315L1687.23,30.942" style="fill:none;stroke:rgb(238,40,124);stroke-width:0.43px;"/>
                    <path d="M2102.4,354.297L1706.23,26.925" style="fill:none;stroke:rgb(238,40,124);stroke-width:0.43px;"/>
                    <path d="M2121.41,350.28L1725.24,22.907" style="fill:none;stroke:rgb(238,40,124);stroke-width:0.43px;"/>
                    <path d="M2140.41,346.262L1744.24,18.89" style="fill:none;stroke:rgb(238,40,124);stroke-width:0.43px;"/>
                    <path d="M2159.41,342.245L1763.24,14.872" style="fill:none;stroke:rgb(238,40,124);stroke-width:0.43px;"/>
                    <path d="M2178.42,338.228L1782.25,10.855" style="fill:none;stroke:rgb(238,40,124);stroke-width:0.43px;"/>
                    <path d="M2197.42,334.21L1801.25,6.837" style="fill:none;stroke:rgb(238,40,124);stroke-width:0.43px;"/>
                    <path d="M2216.42,330.192L1820.25,2.82" style="fill:none;stroke:rgb(238,40,124);stroke-width:0.43px;"/>
                    <path d="M1543.02,473.297L1146.85,145.924" style="fill:none;stroke:rgb(103,62,152);stroke-width:0.43px;"/>
                    <path d="M1562.03,469.28L1165.86,141.907" style="fill:none;stroke:rgb(103,62,152);stroke-width:0.43px;"/>
                    <path d="M1581.03,465.262L1184.86,137.89" style="fill:none;stroke:rgb(103,62,152);stroke-width:0.43px;"/>
                    <path d="M1600.03,461.245L1203.86,133.872" style="fill:none;stroke:rgb(103,62,152);stroke-width:0.43px;"/>
                    <path d="M1619.04,457.228L1222.87,129.855" style="fill:none;stroke:rgb(103,62,152);stroke-width:0.43px;"/>
                    <path d="M1638.04,453.21L1241.87,125.837" style="fill:none;stroke:rgb(103,62,152);stroke-width:0.43px;"/>
                    <path d="M1657.04,449.192L1260.87,121.82" style="fill:none;stroke:rgb(103,62,152);stroke-width:0.43px;"/>
                    <path d="M1676.05,445.175L1279.88,117.802" style="fill:none;stroke:rgb(132,71,156);stroke-width:0.43px;"/>
                    <path d="M1695.05,441.158L1298.88,113.785" style="fill:none;stroke:rgb(132,71,156);stroke-width:0.43px;"/>
                    <path d="M1714.05,437.14L1317.88,109.767" style="fill:none;stroke:rgb(132,71,156);stroke-width:0.43px;"/>
                    <path d="M1733.05,433.123L1336.89,105.75" style="fill:none;stroke:rgb(132,71,156);stroke-width:0.43px;"/>
                    <path d="M1752.06,429.105L1355.89,101.733" style="fill:none;stroke:rgb(132,71,156);stroke-width:0.43px;"/>
                    <path d="M1771.06,425.088L1374.89,97.715" style="fill:none;stroke:rgb(132,71,156);stroke-width:0.43px;"/>
                    <path d="M1790.06,421.07L1393.9,93.698" style="fill:none;stroke:rgb(132,71,156);stroke-width:0.43px;"/>
                    <path d="M1809.07,417.053L1412.9,89.68" style="fill:none;stroke:rgb(137,69,154);stroke-width:0.43px;"/>
                    <path d="M1828.07,413.035L1431.9,85.663" style="fill:none;stroke:rgb(137,69,154);stroke-width:0.43px;"/>
                    <path d="M1847.07,409.018L1450.9,81.645" style="fill:none;stroke:rgb(137,69,154);stroke-width:0.43px;"/>
                    <path d="M1866.08,405.001L1469.91,77.628" style="fill:none;stroke:rgb(137,69,154);stroke-width:0.43px;"/>
                    <path d="M1885.08,400.983L1488.91,73.61" style="fill:none;stroke:rgb(137,69,154);stroke-width:0.43px;"/>
                    <path d="M1904.08,396.965L1507.91,69.593" style="fill:none;stroke:rgb(137,69,154);stroke-width:0.43px;"/>
                    <path d="M1923.09,392.948L1526.92,65.576" style="fill:none;stroke:rgb(137,69,154);stroke-width:0.43px;"/>
                    <path d="M1942.09,388.931L1545.92,61.558" style="fill:none;stroke:rgb(137,69,154);stroke-width:0.43px;"/>
                    <path d="M1961.09,384.913L1564.92,57.54" style="fill:none;stroke:rgb(184,74,155);stroke-width:0.43px;"/>
                    <path d="M1980.1,380.896L1583.93,53.523" style="fill:none;stroke:rgb(184,74,155);stroke-width:0.43px;"/>
                    <path d="M1999.1,376.878L1602.93,49.506" style="fill:none;stroke:rgb(184,74,155);stroke-width:0.43px;"/>
                    <path d="M2018.1,372.86L1621.93,45.488" style="fill:none;stroke:rgb(184,74,155);stroke-width:0.43px;"/>
                    <path d="M2037.1,368.843L1640.94,41.471" style="fill:none;stroke:rgb(184,74,155);stroke-width:0.43px;"/>
                    <path d="M2056.11,364.826L1659.94,37.453" style="fill:none;stroke:rgb(184,74,155);stroke-width:0.43px;"/>
                    <path d="M2075.11,360.808L1678.94,33.435" style="fill:none;stroke:rgb(238,40,124);stroke-width:0.43px;"/>
                    <path d="M2094.11,356.791L1697.95,29.418" style="fill:none;stroke:rgb(238,40,124);stroke-width:0.43px;"/>
                    <path d="M2113.12,352.774L1716.95,25.401" style="fill:none;stroke:rgb(238,40,124);stroke-width:0.43px;"/>
                    <path d="M2132.12,348.756L1735.95,21.383" style="fill:none;stroke:rgb(238,40,124);stroke-width:0.43px;"/>
                    <path d="M2151.12,344.738L1754.95,17.366" style="fill:none;stroke:rgb(238,40,124);stroke-width:0.43px;"/>
                    <path d="M2170.13,340.721L1773.96,13.348" style="fill:none;stroke:rgb(238,40,124);stroke-width:0.43px;"/>
                    <path d="M2189.13,336.703L1792.96,9.331" style="fill:none;stroke:rgb(238,40,124);stroke-width:0.43px;"/>
                    <path d="M2208.13,332.686L1811.96,5.313" style="fill:none;stroke:rgb(238,40,124);stroke-width:0.43px;"/>
                </g>
            </g>
        </g>
        <g>
            <g transform="matrix(1,0,0,1,744.37116,-3023.819778)">
                <path d="M546.883,4506.12L552.235,4506.12L552.235,4474.785L532.376,4474.785L532.376,4479.105L546.883,4479.105L546.883,4506.12ZM549.011,4468.209C551.461,4468.209 553.266,4466.597 553.266,4464.083C553.266,4461.633 551.461,4459.956 549.011,4459.956C546.561,4459.956 544.756,4461.633 544.756,4464.083C544.756,4466.597 546.561,4468.209 549.011,4468.209Z" style="fill:rgb(35,31,32);fill-rule:nonzero;"/>
            </g>
            <g transform="matrix(1,0,0,1,744.37116,-3023.819778)">
                <path d="M571.255,4506.12L576.606,4506.12L576.606,4484.263C580.217,4480.524 582.732,4478.654 586.471,4478.654C591.565,4478.654 593.628,4481.426 593.628,4487.358L593.628,4506.12L598.979,4506.12L598.979,4486.649C598.979,4478.396 595.562,4474.012 588.147,4474.012C583.247,4474.012 579.637,4476.655 576.348,4480.072L576.091,4480.072L575.639,4474.785L571.255,4474.785L571.255,4506.12Z" style="fill:rgb(35,31,32);fill-rule:nonzero;"/>
            </g>
            <g transform="matrix(1,0,0,1,744.37116,-3023.819778)">
                <path d="M629.347,4506.894C633.28,4506.894 636.311,4506.056 639.147,4505.024L637.987,4501.091C635.73,4501.93 633.409,4502.51 630.508,4502.51C624.447,4502.51 622.577,4499.608 622.577,4493.999L622.577,4479.105L637.922,4479.105L637.922,4474.785L622.577,4474.785L622.577,4464.727L618.128,4464.727L617.419,4474.785L608.328,4475.108L608.328,4479.105L617.226,4479.105L617.226,4493.935C617.226,4501.672 620.192,4506.894 629.347,4506.894Z" style="fill:rgb(35,31,32);fill-rule:nonzero;"/>
            </g>
            <g transform="matrix(1,0,0,1,744.37116,-3023.819778)">
                <path d="M663.906,4506.894C668.935,4506.894 672.932,4505.218 676.027,4503.155L674.093,4499.673C671.256,4501.478 668.29,4502.639 664.551,4502.639C657.587,4502.639 652.3,4498.512 652.3,4490.388C652.3,4482.587 657.329,4478.203 663.132,4478.203C668.871,4478.203 672.546,4481.878 672.546,4489.292L673.9,4487.809L650.56,4487.809L650.56,4491.936L677.059,4491.936C677.188,4491.098 677.317,4489.937 677.317,4488.712C677.317,4479.879 672.03,4474.012 663.003,4474.012C654.622,4474.012 647.013,4480.201 647.013,4490.388C647.013,4500.833 654.493,4506.894 663.906,4506.894Z" style="fill:rgb(35,31,32);fill-rule:nonzero;"/>
            </g>
            <g transform="matrix(1,0,0,1,744.37116,-3023.819778)">
                <path d="M690.663,4506.12L696.015,4506.12L696.015,4487.809C699.754,4481.233 704.203,4478.847 708.91,4478.847C711.36,4478.847 712.52,4479.17 714.712,4479.879L715.938,4475.301C714.003,4474.334 712.069,4474.012 709.748,4474.012C703.945,4474.012 699.045,4477.107 695.757,4482.2L695.628,4482.2L695.112,4474.785L690.663,4474.785L690.663,4506.12Z" style="fill:rgb(35,31,32);fill-rule:nonzero;"/>
            </g>
            <g transform="matrix(1,0,0,1,744.37116,-3023.819778)">
                <path d="M725.996,4519.338L731.347,4519.338L731.347,4508.764L731.089,4502.832L731.218,4502.832C734.055,4505.411 737.666,4506.894 740.567,4506.894C748.111,4506.894 754.816,4500.64 754.816,4490.002C754.816,4480.266 750.303,4474.012 741.857,4474.012C738.053,4474.012 733.926,4476.011 731.025,4478.783L730.831,4478.783L730.38,4474.785L725.996,4474.785L725.996,4519.338ZM739.664,4502.381C737.537,4502.381 734.249,4501.414 731.347,4498.77L731.347,4483.167C734.506,4479.943 737.73,4478.525 740.503,4478.525C746.757,4478.525 749.336,4483.103 749.336,4490.002C749.336,4497.739 745.209,4502.381 739.664,4502.381Z" style="fill:rgb(35,31,32);fill-rule:nonzero;"/>
            </g>
            <g transform="matrix(1,0,0,1,744.37116,-3023.819778)">
                <path d="M784.926,4506.894C788.343,4506.894 790.407,4506.249 793.308,4505.024L791.954,4501.027C789.826,4501.994 787.892,4502.445 786.087,4502.445C782.347,4502.445 779.897,4500.511 779.897,4495.998L779.897,4460.214L763.456,4460.214L763.456,4464.534L774.546,4464.534L774.546,4495.611C774.546,4503.026 778.221,4506.894 784.926,4506.894Z" style="fill:rgb(35,31,32);fill-rule:nonzero;"/>
            </g>
            <g transform="matrix(1,0,0,1,744.37116,-3023.819778)">
                <path d="M813.231,4506.894C817.615,4506.894 822.128,4504.573 825.546,4501.865L825.739,4501.865L826.19,4506.12L830.639,4506.12L830.639,4486.907C830.639,4479.105 826.448,4474.012 817.873,4474.012C812.393,4474.012 807.106,4476.462 803.882,4478.525L806.01,4482.136C808.911,4480.33 812.908,4478.396 816.97,4478.396C823.031,4478.396 825.094,4482.007 825.288,4486.262C809.104,4487.552 802.528,4490.969 802.528,4497.997C802.528,4503.606 807.364,4506.894 813.231,4506.894ZM814.649,4502.574C811.039,4502.574 807.815,4501.156 807.815,4497.61C807.815,4493.483 811.877,4490.84 825.288,4489.808L825.288,4497.932C821.677,4500.898 818.195,4502.574 814.649,4502.574Z" style="fill:rgb(35,31,32);fill-rule:nonzero;"/>
            </g>
            <g transform="matrix(1,0,0,1,744.37116,-3023.819778)">
                <path d="M842.051,4506.12L847.403,4506.12L847.403,4484.263C851.013,4480.524 853.528,4478.654 857.267,4478.654C862.361,4478.654 864.424,4481.426 864.424,4487.358L864.424,4506.12L869.776,4506.12L869.776,4486.649C869.776,4478.396 866.358,4474.012 858.944,4474.012C854.044,4474.012 850.433,4476.655 847.145,4480.072L846.887,4480.072L846.436,4474.785L842.051,4474.785L842.051,4506.12Z" style="fill:rgb(35,31,32);fill-rule:nonzero;"/>
            </g>
            <g transform="matrix(1,0,0,1,744.37116,-3023.819778)">
                <path d="M896.017,4506.894C901.046,4506.894 905.044,4505.218 908.138,4503.155L906.204,4499.673C903.367,4501.478 900.401,4502.639 896.662,4502.639C889.698,4502.639 884.412,4498.512 884.412,4490.388C884.412,4482.587 889.441,4478.203 895.243,4478.203C900.982,4478.203 904.657,4481.878 904.657,4489.292L906.011,4487.809L882.671,4487.809L882.671,4491.936L909.17,4491.936C909.299,4491.098 909.428,4489.937 909.428,4488.712C909.428,4479.879 904.141,4474.012 895.114,4474.012C886.733,4474.012 879.125,4480.201 879.125,4490.388C879.125,4500.833 886.604,4506.894 896.017,4506.894Z" style="fill:rgb(35,31,32);fill-rule:nonzero;"/>
            </g>
            <g transform="matrix(1,0,0,1,744.37116,-3023.819778)">
                <path d="M938.829,4506.894C942.762,4506.894 945.792,4506.056 948.629,4505.024L947.468,4501.091C945.212,4501.93 942.891,4502.51 939.989,4502.51C933.929,4502.51 932.059,4499.608 932.059,4493.999L932.059,4479.105L947.404,4479.105L947.404,4474.785L932.059,4474.785L932.059,4464.727L927.61,4464.727L926.901,4474.785L917.81,4475.108L917.81,4479.105L926.707,4479.105L926.707,4493.935C926.707,4501.672 929.673,4506.894 938.829,4506.894Z" style="fill:rgb(35,31,32);fill-rule:nonzero;"/>
            </g>
            <g transform="matrix(1,0,0,1,744.37116,-3023.819778)">
                <path d="M967.972,4506.894C972.356,4506.894 976.869,4504.573 980.286,4501.865L980.48,4501.865L980.931,4506.12L985.38,4506.12L985.38,4486.907C985.38,4479.105 981.189,4474.012 972.614,4474.012C967.133,4474.012 961.846,4476.462 958.623,4478.525L960.75,4482.136C963.652,4480.33 967.649,4478.396 971.711,4478.396C977.772,4478.396 979.835,4482.007 980.028,4486.262C963.845,4487.552 957.269,4490.969 957.269,4497.997C957.269,4503.606 962.104,4506.894 967.972,4506.894ZM969.39,4502.574C965.779,4502.574 962.556,4501.156 962.556,4497.61C962.556,4493.483 966.618,4490.84 980.028,4489.808L980.028,4497.932C976.418,4500.898 972.936,4502.574 969.39,4502.574Z" style="fill:rgb(35,31,32);fill-rule:nonzero;"/>
            </g>
            <g transform="matrix(1,0,0,1,744.37116,-3023.819778)">
                <path d="M1000.145,4506.12L1005.496,4506.12L1005.496,4487.809C1009.236,4481.233 1013.685,4478.847 1018.391,4478.847C1020.841,4478.847 1022.002,4479.17 1024.194,4479.879L1025.419,4475.301C1023.485,4474.334 1021.551,4474.012 1019.229,4474.012C1013.427,4474.012 1008.526,4477.107 1005.238,4482.2L1005.109,4482.2L1004.593,4474.785L1000.145,4474.785L1000.145,4506.12Z" style="fill:rgb(35,31,32);fill-rule:nonzero;"/>
            </g>
            <g transform="matrix(1,0,0,1,744.37116,-3023.819778)">
                <path d="M1037.927,4519.596C1045.084,4519.596 1048.888,4514.889 1051.209,4508.699L1065.071,4474.785L1059.913,4474.785L1053.143,4492.065C1052.112,4494.902 1050.887,4498.19 1049.791,4501.156L1049.533,4501.156C1048.243,4498.126 1046.889,4494.837 1045.664,4492.065L1038.056,4474.785L1032.64,4474.785L1047.212,4506.185L1046.309,4508.506C1044.762,4512.375 1042.118,4515.147 1037.734,4515.147C1036.767,4515.147 1035.735,4514.954 1034.897,4514.696L1033.801,4518.951C1034.897,4519.338 1036.444,4519.596 1037.927,4519.596Z" style="fill:rgb(35,31,32);fill-rule:nonzero;"/>
            </g>
            <g transform="matrix(1,0,0,1,744.37116,-3023.819778)">
                <path d="M1127.536,4506.894C1134.951,4506.894 1141.656,4500.64 1141.656,4489.937C1141.656,4480.266 1137.078,4474.012 1128.632,4474.012C1124.957,4474.012 1120.96,4475.882 1118.123,4478.783L1117.929,4478.783L1118.187,4472.722L1118.187,4460.214L1112.836,4460.214L1112.836,4506.12L1117.091,4506.12L1117.607,4502.639L1117.8,4502.639C1120.702,4505.282 1124.441,4506.894 1127.536,4506.894ZM1126.633,4502.381C1124.377,4502.381 1121.089,4501.414 1118.187,4498.77L1118.187,4483.167C1121.347,4479.943 1124.57,4478.525 1127.343,4478.525C1133.597,4478.525 1136.176,4483.103 1136.176,4490.002C1136.176,4497.739 1132.049,4502.381 1126.633,4502.381Z" style="fill:rgb(35,31,32);fill-rule:nonzero;"/>
            </g>
            <g transform="matrix(1,0,0,1,744.37116,-3023.819778)">
                <path d="M1161.321,4506.894C1166.157,4506.894 1169.832,4504.315 1172.991,4500.64L1173.249,4500.64L1173.7,4506.12L1178.149,4506.12L1178.149,4474.785L1172.798,4474.785L1172.798,4496.514C1169.316,4500.576 1166.673,4502.252 1163.062,4502.252C1157.904,4502.252 1155.841,4499.415 1155.841,4493.548L1155.841,4474.785L1150.489,4474.785L1150.489,4494.257C1150.489,4502.51 1153.906,4506.894 1161.321,4506.894Z" style="fill:rgb(35,31,32);fill-rule:nonzero;"/>
            </g>
            <g transform="matrix(1,0,0,1,744.37116,-3023.819778)">
                <path d="M1204.52,4506.12L1209.871,4506.12L1209.871,4474.785L1190.013,4474.785L1190.013,4479.105L1204.52,4479.105L1204.52,4506.12ZM1206.647,4468.209C1209.097,4468.209 1210.903,4466.597 1210.903,4464.083C1210.903,4461.633 1209.097,4459.956 1206.647,4459.956C1204.197,4459.956 1202.392,4461.633 1202.392,4464.083C1202.392,4466.597 1204.197,4468.209 1206.647,4468.209Z" style="fill:rgb(35,31,32);fill-rule:nonzero;"/>
            </g>
            <g transform="matrix(1,0,0,1,744.37116,-3023.819778)">
                <path d="M1249.136,4506.894C1252.554,4506.894 1254.617,4506.249 1257.518,4505.024L1256.164,4501.027C1254.037,4501.994 1252.102,4502.445 1250.297,4502.445C1246.557,4502.445 1244.107,4500.511 1244.107,4495.998L1244.107,4460.214L1227.666,4460.214L1227.666,4464.534L1238.756,4464.534L1238.756,4495.611C1238.756,4503.026 1242.431,4506.894 1249.136,4506.894Z" style="fill:rgb(35,31,32);fill-rule:nonzero;"/>
            </g>
            <g transform="matrix(1,0,0,1,744.37116,-3023.819778)">
                <path d="M1278.988,4506.894C1282.921,4506.894 1286.661,4504.638 1289.24,4501.994L1289.433,4501.994L1289.885,4506.12L1294.269,4506.12L1294.269,4460.214L1288.918,4460.214L1288.918,4472.271L1289.175,4478.009L1289.047,4478.009C1286.274,4475.495 1283.373,4474.012 1279.633,4474.012C1272.218,4474.012 1265.449,4480.33 1265.449,4490.517C1265.449,4500.962 1270.865,4506.894 1278.988,4506.894ZM1280.149,4502.381C1274.411,4502.381 1270.929,4497.932 1270.929,4490.453C1270.929,4483.296 1275.313,4478.525 1280.729,4478.525C1283.437,4478.525 1286.081,4479.492 1288.918,4482.136L1288.918,4497.739C1286.145,4500.833 1283.244,4502.381 1280.149,4502.381Z" style="fill:rgb(35,31,32);fill-rule:nonzero;"/>
            </g>
            <g transform="matrix(1,0,0,1,744.37116,-3023.819778)">
                <path d="M1320.575,4506.12L1325.926,4506.12L1325.926,4474.785L1306.068,4474.785L1306.068,4479.105L1320.575,4479.105L1320.575,4506.12ZM1322.703,4468.209C1325.153,4468.209 1326.958,4466.597 1326.958,4464.083C1326.958,4461.633 1325.153,4459.956 1322.703,4459.956C1320.253,4459.956 1318.447,4461.633 1318.447,4464.083C1318.447,4466.597 1320.253,4468.209 1322.703,4468.209Z" style="fill:rgb(35,31,32);fill-rule:nonzero;"/>
            </g>
            <g transform="matrix(1,0,0,1,744.37116,-3023.819778)">
                <path d="M1344.947,4506.12L1350.298,4506.12L1350.298,4484.263C1353.909,4480.524 1356.423,4478.654 1360.163,4478.654C1365.256,4478.654 1367.319,4481.426 1367.319,4487.358L1367.319,4506.12L1372.671,4506.12L1372.671,4486.649C1372.671,4478.396 1369.254,4474.012 1361.839,4474.012C1356.939,4474.012 1353.328,4476.655 1350.04,4480.072L1349.782,4480.072L1349.331,4474.785L1344.947,4474.785L1344.947,4506.12Z" style="fill:rgb(35,31,32);fill-rule:nonzero;"/>
            </g>
            <g transform="matrix(1,0,0,1,744.37116,-3023.819778)">
                <path d="M1396.72,4520.563C1407.359,4520.563 1414.128,4515.469 1414.128,4509.602C1414.128,4504.315 1410.26,4502.252 1402.201,4502.252L1395.173,4502.252C1391.046,4502.252 1388.661,4501.091 1388.661,4498.641C1388.661,4497.158 1389.563,4495.998 1391.111,4495.031C1392.852,4495.804 1394.786,4496.191 1396.398,4496.191C1403.168,4496.191 1408.519,4492.129 1408.519,4485.424C1408.519,4482.909 1407.294,4480.588 1405.876,4479.105L1414,4479.105L1414,4474.785L1401.04,4474.785C1399.686,4474.27 1398.203,4474.012 1396.398,4474.012C1389.757,4474.012 1384.083,4478.396 1384.083,4485.23C1384.083,4488.97 1385.824,4491.742 1387.951,4493.354L1387.951,4493.612C1385.566,4495.224 1384.212,4497.481 1384.212,4499.48C1384.212,4502.123 1385.759,4503.735 1387.436,4504.638L1387.436,4504.895C1384.083,4506.83 1382.278,4509.344 1382.278,4511.859C1382.278,4517.404 1387.565,4520.563 1396.72,4520.563ZM1396.398,4492.645C1392.465,4492.645 1389.177,4489.744 1389.177,4485.23C1389.177,4480.846 1392.465,4477.88 1396.398,4477.88C1400.395,4477.88 1403.619,4480.846 1403.619,4485.23C1403.619,4489.744 1400.395,4492.645 1396.398,4492.645ZM1397.107,4516.694C1390.402,4516.694 1386.855,4514.631 1386.855,4511.343C1386.855,4509.538 1387.887,4507.732 1390.853,4506.12C1392.207,4506.507 1393.819,4506.636 1395.624,4506.636L1401.749,4506.636C1406.52,4506.636 1408.906,4507.474 1408.906,4510.44C1408.906,4513.664 1404.393,4516.694 1397.107,4516.694Z" style="fill:rgb(35,31,32);fill-rule:nonzero;"/>
            </g>
            <g transform="matrix(1,0,0,1,744.37116,-3023.819778)">
                <path d="M1475.309,4506.12L1480.661,4506.12L1480.661,4474.785L1460.802,4474.785L1460.802,4479.105L1475.309,4479.105L1475.309,4506.12ZM1477.437,4468.209C1479.887,4468.209 1481.692,4466.597 1481.692,4464.083C1481.692,4461.633 1479.887,4459.956 1477.437,4459.956C1474.987,4459.956 1473.182,4461.633 1473.182,4464.083C1473.182,4466.597 1474.987,4468.209 1477.437,4468.209Z" style="fill:rgb(35,31,32);fill-rule:nonzero;"/>
            </g>
            <g transform="matrix(1,0,0,1,744.37116,-3023.819778)">
                <path d="M1499.681,4506.12L1505.032,4506.12L1505.032,4484.263C1508.643,4480.524 1511.157,4478.654 1514.897,4478.654C1519.991,4478.654 1522.054,4481.426 1522.054,4487.358L1522.054,4506.12L1527.405,4506.12L1527.405,4486.649C1527.405,4478.396 1523.988,4474.012 1516.573,4474.012C1511.673,4474.012 1508.063,4476.655 1504.774,4480.072L1504.517,4480.072L1504.065,4474.785L1499.681,4474.785L1499.681,4506.12Z" style="fill:rgb(35,31,32);fill-rule:nonzero;"/>
            </g>
            <g transform="matrix(1,0,0,1,744.37116,-3023.819778)">
                <path d="M1539.011,4479.105L1547.973,4479.105L1547.973,4506.12L1553.26,4506.12L1553.26,4479.105L1566.348,4479.105L1566.348,4474.785L1553.26,4474.785L1553.26,4471.949C1553.26,4466.919 1555.516,4463.76 1561.126,4463.76C1563.834,4463.76 1565.832,4464.147 1568.412,4465.243L1569.637,4461.246C1566.671,4460.021 1563.705,4459.44 1560.61,4459.44C1551.97,4459.44 1547.973,4464.534 1547.973,4472.142L1547.973,4474.785L1539.011,4475.043L1539.011,4479.105Z" style="fill:rgb(35,31,32);fill-rule:nonzero;"/>
            </g>
            <g transform="matrix(1,0,0,1,744.37116,-3023.819778)">
                <path d="M1590.398,4506.894C1598.65,4506.894 1605.872,4500.898 1605.872,4490.517C1605.872,4480.008 1598.65,4474.012 1590.398,4474.012C1582.145,4474.012 1574.923,4480.008 1574.923,4490.517C1574.923,4500.898 1582.145,4506.894 1590.398,4506.894ZM1590.398,4502.445C1584.401,4502.445 1580.404,4497.674 1580.404,4490.517C1580.404,4483.296 1584.401,4478.461 1590.398,4478.461C1596.394,4478.461 1600.391,4483.296 1600.391,4490.517C1600.391,4497.674 1596.394,4502.445 1590.398,4502.445Z" style="fill:rgb(35,31,32);fill-rule:nonzero;"/>
            </g>
            <g transform="matrix(1,0,0,1,744.37116,-3023.819778)">
                <path d="M1619.089,4506.12L1624.44,4506.12L1624.44,4487.809C1628.18,4481.233 1632.629,4478.847 1637.335,4478.847C1639.786,4478.847 1640.946,4479.17 1643.138,4479.879L1644.363,4475.301C1642.429,4474.334 1640.495,4474.012 1638.174,4474.012C1632.371,4474.012 1627.471,4477.107 1624.183,4482.2L1624.054,4482.2L1623.538,4474.785L1619.089,4474.785L1619.089,4506.12Z" style="fill:rgb(35,31,32);fill-rule:nonzero;"/>
            </g>
            <g transform="matrix(1,0,0,1,744.37116,-3023.819778)">
                <path d="M1652.165,4506.12L1657.452,4506.12L1657.452,4483.425C1658.999,4480.201 1660.418,4478.59 1662.61,4478.59C1664.931,4478.59 1665.834,4480.459 1665.834,4484.07L1665.834,4506.12L1670.734,4506.12L1670.734,4483.425C1672.41,4480.201 1673.571,4478.59 1675.763,4478.59C1678.084,4478.59 1679.115,4480.459 1679.115,4484.07L1679.115,4506.12L1684.402,4506.12L1684.402,4483.683C1684.402,4477.429 1681.823,4474.012 1677.439,4474.012C1673.828,4474.012 1671.894,4476.075 1670.089,4479.428C1669.186,4475.817 1667.252,4474.012 1664.157,4474.012C1660.547,4474.012 1658.612,4476.011 1657,4478.912L1656.871,4478.912L1656.42,4474.785L1652.165,4474.785L1652.165,4506.12Z" style="fill:rgb(35,31,32);fill-rule:nonzero;"/>
            </g>
            <g transform="matrix(1,0,0,1,744.37116,-3023.819778)">
                <path d="M1702.971,4506.894C1707.356,4506.894 1711.869,4504.573 1715.286,4501.865L1715.479,4501.865L1715.931,4506.12L1720.38,4506.12L1720.38,4486.907C1720.38,4479.105 1716.189,4474.012 1707.613,4474.012C1702.133,4474.012 1696.846,4476.462 1693.622,4478.525L1695.75,4482.136C1698.651,4480.33 1702.649,4478.396 1706.711,4478.396C1712.771,4478.396 1714.835,4482.007 1715.028,4486.262C1698.845,4487.552 1692.268,4490.969 1692.268,4497.997C1692.268,4503.606 1697.104,4506.894 1702.971,4506.894ZM1704.39,4502.574C1700.779,4502.574 1697.555,4501.156 1697.555,4497.61C1697.555,4493.483 1701.617,4490.84 1715.028,4489.808L1715.028,4497.932C1711.418,4500.898 1707.936,4502.574 1704.39,4502.574Z" style="fill:rgb(35,31,32);fill-rule:nonzero;"/>
            </g>
            <g transform="matrix(1,0,0,1,744.37116,-3023.819778)">
                <path d="M1751.199,4506.894C1755.132,4506.894 1758.162,4506.056 1760.999,4505.024L1759.838,4501.091C1757.582,4501.93 1755.261,4502.51 1752.359,4502.51C1746.299,4502.51 1744.429,4499.608 1744.429,4493.999L1744.429,4479.105L1759.774,4479.105L1759.774,4474.785L1744.429,4474.785L1744.429,4464.727L1739.98,4464.727L1739.271,4474.785L1730.18,4475.108L1730.18,4479.105L1739.077,4479.105L1739.077,4493.935C1739.077,4501.672 1742.043,4506.894 1751.199,4506.894Z" style="fill:rgb(35,31,32);fill-rule:nonzero;"/>
            </g>
            <g transform="matrix(1,0,0,1,744.37116,-3023.819778)">
                <path d="M1784.79,4506.12L1790.142,4506.12L1790.142,4474.785L1770.283,4474.785L1770.283,4479.105L1784.79,4479.105L1784.79,4506.12ZM1786.918,4468.209C1789.368,4468.209 1791.173,4466.597 1791.173,4464.083C1791.173,4461.633 1789.368,4459.956 1786.918,4459.956C1784.468,4459.956 1782.663,4461.633 1782.663,4464.083C1782.663,4466.597 1784.468,4468.209 1786.918,4468.209Z" style="fill:rgb(35,31,32);fill-rule:nonzero;"/>
            </g>
            <g transform="matrix(1,0,0,1,744.37116,-3023.819778)">
                <path d="M1822.508,4506.894C1830.761,4506.894 1837.982,4500.898 1837.982,4490.517C1837.982,4480.008 1830.761,4474.012 1822.508,4474.012C1814.255,4474.012 1807.034,4480.008 1807.034,4490.517C1807.034,4500.898 1814.255,4506.894 1822.508,4506.894ZM1822.508,4502.445C1816.512,4502.445 1812.515,4497.674 1812.515,4490.517C1812.515,4483.296 1816.512,4478.461 1822.508,4478.461C1828.504,4478.461 1832.502,4483.296 1832.502,4490.517C1832.502,4497.674 1828.504,4502.445 1822.508,4502.445Z" style="fill:rgb(35,31,32);fill-rule:nonzero;"/>
            </g>
            <g transform="matrix(1,0,0,1,744.37116,-3023.819778)">
                <path d="M1847.847,4506.12L1853.198,4506.12L1853.198,4484.263C1856.809,4480.524 1859.324,4478.654 1863.063,4478.654C1868.157,4478.654 1870.22,4481.426 1870.22,4487.358L1870.22,4506.12L1875.571,4506.12L1875.571,4486.649C1875.571,4478.396 1872.154,4474.012 1864.74,4474.012C1859.839,4474.012 1856.229,4476.655 1852.941,4480.072L1852.683,4480.072L1852.231,4474.785L1847.847,4474.785L1847.847,4506.12Z" style="fill:rgb(35,31,32);fill-rule:nonzero;"/>
            </g>
            <g transform="matrix(1,0,0,1,744.37116,-3023.819778)">
                <path d="M1925.216,4506.12L1930.567,4506.12L1930.567,4484.263C1934.178,4480.524 1936.692,4478.654 1940.432,4478.654C1945.525,4478.654 1947.589,4481.426 1947.589,4487.358L1947.589,4506.12L1952.94,4506.12L1952.94,4486.649C1952.94,4478.396 1949.523,4474.012 1942.108,4474.012C1937.208,4474.012 1933.598,4476.655 1930.309,4480.072L1930.051,4480.072L1929.6,4474.785L1925.216,4474.785L1925.216,4506.12Z" style="fill:rgb(35,31,32);fill-rule:nonzero;"/>
            </g>
            <g transform="matrix(1,0,0,1,744.37116,-3023.819778)">
                <path d="M1979.182,4506.894C1984.211,4506.894 1988.208,4505.218 1991.303,4503.155L1989.369,4499.673C1986.532,4501.478 1983.566,4502.639 1979.826,4502.639C1972.863,4502.639 1967.576,4498.512 1967.576,4490.388C1967.576,4482.587 1972.605,4478.203 1978.408,4478.203C1984.146,4478.203 1987.821,4481.878 1987.821,4489.292L1989.175,4487.809L1965.835,4487.809L1965.835,4491.936L1992.335,4491.936C1992.463,4491.098 1992.592,4489.937 1992.592,4488.712C1992.592,4479.879 1987.305,4474.012 1978.279,4474.012C1969.897,4474.012 1962.289,4480.201 1962.289,4490.388C1962.289,4500.833 1969.768,4506.894 1979.182,4506.894Z" style="fill:rgb(35,31,32);fill-rule:nonzero;"/>
            </g>
            <g transform="matrix(1,0,0,1,744.37116,-3023.819778)">
                <path d="M2021.993,4506.894C2025.926,4506.894 2028.956,4506.056 2031.793,4505.024L2030.633,4501.091C2028.376,4501.93 2026.055,4502.51 2023.154,4502.51C2017.093,4502.51 2015.223,4499.608 2015.223,4493.999L2015.223,4479.105L2030.568,4479.105L2030.568,4474.785L2015.223,4474.785L2015.223,4464.727L2010.774,4464.727L2010.065,4474.785L2000.974,4475.108L2000.974,4479.105L2009.872,4479.105L2009.872,4493.935C2009.872,4501.672 2012.838,4506.894 2021.993,4506.894Z" style="fill:rgb(35,31,32);fill-rule:nonzero;"/>
            </g>
            <g transform="matrix(1,0,0,1,744.37116,-3023.819778)">
                <path d="M2042.625,4506.12L2049.46,4506.12L2052.941,4491.162C2053.457,4488.97 2053.973,4485.875 2054.489,4481.878L2054.746,4481.878C2055.262,4485.875 2055.778,4488.97 2056.294,4491.162L2059.905,4506.12L2066.739,4506.12L2073.444,4474.785L2068.544,4474.785L2064.805,4492.968C2064.224,4495.933 2063.902,4498.641 2063.386,4501.607L2063.128,4501.607C2062.741,4498.641 2061.903,4495.933 2061.194,4492.968L2057.454,4476.72L2052.167,4476.72L2048.299,4492.968C2047.59,4495.869 2046.88,4498.641 2046.494,4501.607L2046.236,4501.607C2045.849,4498.641 2045.398,4495.933 2044.817,4492.968L2041.078,4474.785L2035.791,4474.785L2042.625,4506.12Z" style="fill:rgb(35,31,32);fill-rule:nonzero;"/>
            </g>
            <g transform="matrix(1,0,0,1,744.37116,-3023.819778)">
                <path d="M2093.303,4506.894C2101.556,4506.894 2108.777,4500.898 2108.777,4490.517C2108.777,4480.008 2101.556,4474.012 2093.303,4474.012C2085.05,4474.012 2077.829,4480.008 2077.829,4490.517C2077.829,4500.898 2085.05,4506.894 2093.303,4506.894ZM2093.303,4502.445C2087.306,4502.445 2083.309,4497.674 2083.309,4490.517C2083.309,4483.296 2087.306,4478.461 2093.303,4478.461C2099.299,4478.461 2103.296,4483.296 2103.296,4490.517C2103.296,4497.674 2099.299,4502.445 2093.303,4502.445Z" style="fill:rgb(35,31,32);fill-rule:nonzero;"/>
            </g>
            <g transform="matrix(1,0,0,1,744.37116,-3023.819778)">
                <path d="M2121.994,4506.12L2127.346,4506.12L2127.346,4487.809C2131.085,4481.233 2135.534,4478.847 2140.241,4478.847C2142.691,4478.847 2143.851,4479.17 2146.044,4479.879L2147.269,4475.301C2145.334,4474.334 2143.4,4474.012 2141.079,4474.012C2135.276,4474.012 2130.376,4477.107 2127.088,4482.2L2126.959,4482.2L2126.443,4474.785L2121.994,4474.785L2121.994,4506.12Z" style="fill:rgb(35,31,32);fill-rule:nonzero;"/>
            </g>
            <g transform="matrix(1,0,0,1,744.37116,-3023.819778)">
                <path d="M2182.408,4506.12L2188.339,4506.12L2174.219,4487.1L2186.663,4474.85L2180.538,4474.85L2163.71,4491.291L2163.452,4491.291L2163.452,4460.279L2158.101,4460.279L2158.101,4506.185L2163.452,4506.185L2163.452,4497.674L2170.802,4490.453L2182.408,4506.12Z" style="fill:rgb(35,31,32);fill-rule:nonzero;"/>
            </g>
        </g>
    </g>
</svg>
