<?xml version="1.0" encoding="UTF-8" standalone="no"?><!DOCTYPE svg PUBLIC "-//W3C//DTD SVG 1.1//EN" "http://www.w3.org/Graphics/SVG/1.1/DTD/svg11.dtd"><svg width="100%" height="100%" viewBox="0 0 17763 22680" version="1.1" xmlns="http://www.w3.org/2000/svg" xmlns:xlink="http://www.w3.org/1999/xlink" xml:space="preserve" xmlns:serif="http://www.serif.com/" style="fill-rule:evenodd;clip-rule:evenodd;stroke-miterlimit:2;"><g><rect x="4650.838" y="2311.685" width="2979.167" height="1267.596" style="fill:#231f20;fill-rule:nonzero;"/><g><clipPath id="_clip1"><path d="M4926.463,2728.286l163.5,0l0,434.391l-163.5,0l0,132.872l485.458,0l0,-132.872l-163.5,0l0,-434.391l163.5,0l0,-132.867l-485.458,0l0,132.867Z"/></clipPath><g clip-path="url(#_clip1)"><path d="M5647.379,3947.899l-1650.709,-1364.054" style="fill:none;stroke:#673e98;stroke-width:7.5px;"/><path d="M5726.587,3931.161l-1650.708,-1364.054" style="fill:none;stroke:#673e98;stroke-width:7.5px;"/><path d="M5805.754,3914.419l-1650.708,-1364.054" style="fill:none;stroke:#673e98;stroke-width:7.5px;"/><path d="M5884.921,3897.681l-1650.708,-1364.058" style="fill:none;stroke:#673e98;stroke-width:7.5px;"/><path d="M5964.129,3880.939l-1650.708,-1364.054" style="fill:none;stroke:#673e98;stroke-width:7.5px;"/><path d="M6043.296,3864.201l-1650.708,-1364.052" style="fill:none;stroke:#673e98;stroke-width:7.5px;"/><path d="M6122.462,3847.461l-1650.708,-1364.054" style="fill:none;stroke:#84479c;stroke-width:7.5px;"/><path d="M6201.629,3830.723l-1650.666,-1364.054" style="fill:none;stroke:#84479c;stroke-width:7.5px;"/><path d="M6280.837,3813.982l-1650.708,-1364.05" style="fill:none;stroke:#84479c;stroke-width:7.5px;"/><path d="M6360.004,3797.244l-1650.708,-1364.054" style="fill:none;stroke:#84479c;stroke-width:7.5px;"/><path d="M6439.171,3780.502l-1650.708,-1364.054" style="fill:none;stroke:#84479c;stroke-width:7.5px;"/><path d="M6518.379,3763.764l-1650.708,-1364.054" style="fill:none;stroke:#84479c;stroke-width:7.5px;"/><path d="M6597.546,3747.024l-1650.708,-1364.05" style="fill:none;stroke:#84479c;stroke-width:7.5px;"/><path d="M6676.712,3730.286l-1650.708,-1364.054" style="fill:none;stroke:#84479c;stroke-width:7.5px;"/><path d="M6755.921,3713.548l-1650.709,-1364.054" style="fill:none;stroke:#89459a;stroke-width:7.5px;"/><path d="M6835.087,3696.806l-1650.709,-1364.054" style="fill:none;stroke:#89459a;stroke-width:7.5px;"/><path d="M6914.254,3680.064l-1650.709,-1364.05" style="fill:none;stroke:#89459a;stroke-width:7.5px;"/><path d="M6993.462,3663.326l-1650.709,-1364.054" style="fill:none;stroke:#89459a;stroke-width:7.5px;"/><path d="M7072.629,3646.584l-1650.709,-1364.048" style="fill:none;stroke:#89459a;stroke-width:7.5px;"/><path d="M7151.796,3629.849l-1650.709,-1364.054" style="fill:none;stroke:#89459a;stroke-width:7.5px;"/><path d="M7231.004,3613.111l-1650.709,-1364.054" style="fill:none;stroke:#89459a;stroke-width:7.5px;"/><path d="M7310.171,3596.369l-1650.709,-1364.054" style="fill:none;stroke:#89459a;stroke-width:7.5px;"/><path d="M7389.338,3579.631l-1650.709,-1364.054" style="fill:none;stroke:#b84a9b;stroke-width:7.5px;"/><path d="M7468.504,3562.889l-1650.667,-1364.05" style="fill:none;stroke:#b84a9b;stroke-width:7.5px;"/><path d="M7547.713,3546.151l-1650.709,-1364.052" style="fill:none;stroke:#b84a9b;stroke-width:7.5px;"/><path d="M7626.879,3529.411l-1650.709,-1364.054" style="fill:none;stroke:#b84a9b;stroke-width:7.5px;"/><path d="M7706.046,3512.673l-1650.709,-1364.054" style="fill:none;stroke:#b84a9b;stroke-width:7.5px;"/><path d="M7785.25,3495.931l-1650.704,-1364.05" style="fill:none;stroke:#b84a9b;stroke-width:7.5px;"/><path d="M7864.416,3479.193l-1650.704,-1364.054" style="fill:none;stroke:#ee287c;stroke-width:7.5px;"/><path d="M7943.587,3462.452l-1650.708,-1364.05" style="fill:none;stroke:#ee287c;stroke-width:7.5px;"/><path d="M8022.795,3445.714l-1650.708,-1364.052" style="fill:none;stroke:#ee287c;stroke-width:7.5px;"/><path d="M8101.962,3428.974l-1650.708,-1364.05" style="fill:none;stroke:#ee287c;stroke-width:7.5px;"/><path d="M8181.129,3412.236l-1650.708,-1364.054" style="fill:none;stroke:#ee287c;stroke-width:7.5px;"/><path d="M8260.337,3395.498l-1650.708,-1364.054" style="fill:none;stroke:#ee287c;stroke-width:7.5px;"/><path d="M8339.504,3378.756l-1650.708,-1364.054" style="fill:none;stroke:#ee287c;stroke-width:7.5px;"/><path d="M8418.671,3362.014l-1650.708,-1364.05" style="fill:none;stroke:#ee287c;stroke-width:7.5px;"/><path d="M5612.838,3958.285l-1650.709,-1364.054" style="fill:none;stroke:#673e98;stroke-width:7.5px;"/><path d="M5692.046,3941.547l-1650.709,-1364.052" style="fill:none;stroke:#673e98;stroke-width:7.5px;"/><path d="M5771.213,3924.807l-1650.709,-1364.05" style="fill:none;stroke:#673e98;stroke-width:7.5px;"/><path d="M5850.379,3908.069l-1650.709,-1364.054" style="fill:none;stroke:#673e98;stroke-width:7.5px;"/><path d="M5929.588,3891.331l-1650.709,-1364.054" style="fill:none;stroke:#673e98;stroke-width:7.5px;"/><path d="M6008.754,3874.589l-1650.709,-1364.054" style="fill:none;stroke:#673e98;stroke-width:7.5px;"/><path d="M6087.921,3857.847l-1650.709,-1364.05" style="fill:none;stroke:#673e98;stroke-width:7.5px;"/><path d="M6167.129,3841.11l-1650.709,-1364.054" style="fill:none;stroke:#84479c;stroke-width:7.5px;"/><path d="M6246.296,3824.374l-1650.709,-1364.054" style="fill:none;stroke:#84479c;stroke-width:7.5px;"/><path d="M6325.463,3807.632l-1650.709,-1364.054" style="fill:none;stroke:#84479c;stroke-width:7.5px;"/><path d="M6404.629,3790.894l-1650.667,-1364.054" style="fill:none;stroke:#84479c;stroke-width:7.5px;"/><path d="M6483.838,3774.152l-1650.709,-1364.05" style="fill:none;stroke:#84479c;stroke-width:7.5px;"/><path d="M6563.004,3757.414l-1650.709,-1364.054" style="fill:none;stroke:#84479c;stroke-width:7.5px;"/><path d="M6642.171,3740.672l-1650.667,-1364.048" style="fill:none;stroke:#84479c;stroke-width:7.5px;"/><path d="M6721.379,3723.936l-1650.708,-1364.054" style="fill:none;stroke:#89459a;stroke-width:7.5px;"/><path d="M6800.546,3707.194l-1650.708,-1364.05" style="fill:none;stroke:#89459a;stroke-width:7.5px;"/><path d="M6879.712,3690.457l-1650.708,-1364.054" style="fill:none;stroke:#89459a;stroke-width:7.5px;"/><path d="M6958.921,3673.719l-1650.708,-1364.054" style="fill:none;stroke:#89459a;stroke-width:7.5px;"/><path d="M7038.087,3656.977l-1650.708,-1364.054" style="fill:none;stroke:#89459a;stroke-width:7.5px;"/><path d="M7117.254,3640.235l-1650.708,-1364.05" style="fill:none;stroke:#89459a;stroke-width:7.5px;"/><path d="M7196.462,3623.499l-1650.708,-1364.05" style="fill:none;stroke:#89459a;stroke-width:7.5px;"/><path d="M7275.629,3606.761l-1650.708,-1364.054" style="fill:none;stroke:#89459a;stroke-width:7.5px;"/><path d="M7354.796,3590.019l-1650.708,-1364.054" style="fill:none;stroke:#b84a9b;stroke-width:7.5px;"/><path d="M7434.004,3573.281l-1650.708,-1364.054" style="fill:none;stroke:#b84a9b;stroke-width:7.5px;"/><path d="M7513.171,3556.539l-1650.708,-1364.05" style="fill:none;stroke:#b84a9b;stroke-width:7.5px;"/><path d="M7592.337,3539.797l-1650.708,-1364.05" style="fill:none;stroke:#b84a9b;stroke-width:7.5px;"/><path d="M7671.504,3523.059l-1650.667,-1364.048" style="fill:none;stroke:#b84a9b;stroke-width:7.5px;"/><path d="M7750.713,3506.324l-1650.709,-1364.054" style="fill:none;stroke:#b84a9b;stroke-width:7.5px;"/><path d="M7829.88,3489.582l-1650.709,-1364.054" style="fill:none;stroke:#ee287c;stroke-width:7.5px;"/><path d="M7909.046,3472.844l-1650.667,-1364.054" style="fill:none;stroke:#ee287c;stroke-width:7.5px;"/><path d="M7988.255,3456.106l-1650.709,-1364.054" style="fill:none;stroke:#ee287c;stroke-width:7.5px;"/><path d="M8067.421,3439.364l-1650.709,-1364.054" style="fill:none;stroke:#ee287c;stroke-width:7.5px;"/><path d="M8146.588,3422.622l-1650.709,-1364.048" style="fill:none;stroke:#ee287c;stroke-width:7.5px;"/><path d="M8225.795,3405.886l-1650.708,-1364.054" style="fill:none;stroke:#ee287c;stroke-width:7.5px;"/><path d="M8304.962,3389.144l-1650.708,-1364.05" style="fill:none;stroke:#ee287c;stroke-width:7.5px;"/><path d="M8384.129,3372.406l-1650.708,-1364.054" style="fill:none;stroke:#ee287c;stroke-width:7.5px;"/></g></g><g><clipPath id="_clip2"><path d="M5813.338,3172.276l-84.417,0l0,-181.879l84.417,0c87.125,0 127.375,25.38 127.375,86.82c0,63.839 -41.167,95.058 -127.375,95.058Zm-84.417,-453.591l71.208,0c73.667,0 107.792,20.18 107.792,72.428c0,52.85 -32.041,85.325 -108.958,85.325l-70.041,0l0,-157.753Zm214.083,205.788l0,-4.297c82.25,-21.486 119.708,-88.45 119.708,-151.308c0,-133.628 -110.958,-173.45 -256.459,-173.45l-235.5,0l0,700.13l255.458,0c152.5,0 269.25,-63.81 269.25,-206.281c0,-93.591 -52.416,-146.354 -152.458,-164.795Z"/></clipPath><g clip-path="url(#_clip2)"><path d="M5647.379,3947.899l-1650.709,-1364.054" style="fill:none;stroke:#673e98;stroke-width:7.5px;"/><path d="M5726.587,3931.161l-1650.708,-1364.054" style="fill:none;stroke:#673e98;stroke-width:7.5px;"/><path d="M5805.754,3914.419l-1650.708,-1364.054" style="fill:none;stroke:#673e98;stroke-width:7.5px;"/><path d="M5884.921,3897.681l-1650.708,-1364.058" style="fill:none;stroke:#673e98;stroke-width:7.5px;"/><path d="M5964.129,3880.939l-1650.708,-1364.054" style="fill:none;stroke:#673e98;stroke-width:7.5px;"/><path d="M6043.296,3864.201l-1650.708,-1364.052" style="fill:none;stroke:#673e98;stroke-width:7.5px;"/><path d="M6122.462,3847.461l-1650.708,-1364.054" style="fill:none;stroke:#84479c;stroke-width:7.5px;"/><path d="M6201.629,3830.723l-1650.666,-1364.054" style="fill:none;stroke:#84479c;stroke-width:7.5px;"/><path d="M6280.837,3813.982l-1650.708,-1364.05" style="fill:none;stroke:#84479c;stroke-width:7.5px;"/><path d="M6360.004,3797.244l-1650.708,-1364.054" style="fill:none;stroke:#84479c;stroke-width:7.5px;"/><path d="M6439.171,3780.502l-1650.708,-1364.054" style="fill:none;stroke:#84479c;stroke-width:7.5px;"/><path d="M6518.379,3763.764l-1650.708,-1364.054" style="fill:none;stroke:#84479c;stroke-width:7.5px;"/><path d="M6597.546,3747.024l-1650.708,-1364.05" style="fill:none;stroke:#84479c;stroke-width:7.5px;"/><path d="M6676.712,3730.286l-1650.708,-1364.054" style="fill:none;stroke:#84479c;stroke-width:7.5px;"/><path d="M6755.921,3713.548l-1650.709,-1364.054" style="fill:none;stroke:#89459a;stroke-width:7.5px;"/><path d="M6835.087,3696.806l-1650.709,-1364.054" style="fill:none;stroke:#89459a;stroke-width:7.5px;"/><path d="M6914.254,3680.064l-1650.709,-1364.05" style="fill:none;stroke:#89459a;stroke-width:7.5px;"/><path d="M6993.462,3663.326l-1650.709,-1364.054" style="fill:none;stroke:#89459a;stroke-width:7.5px;"/><path d="M7072.629,3646.584l-1650.709,-1364.048" style="fill:none;stroke:#89459a;stroke-width:7.5px;"/><path d="M7151.796,3629.849l-1650.709,-1364.054" style="fill:none;stroke:#89459a;stroke-width:7.5px;"/><path d="M7231.004,3613.111l-1650.709,-1364.054" style="fill:none;stroke:#89459a;stroke-width:7.5px;"/><path d="M7310.171,3596.369l-1650.709,-1364.054" style="fill:none;stroke:#89459a;stroke-width:7.5px;"/><path d="M7389.338,3579.631l-1650.709,-1364.054" style="fill:none;stroke:#b84a9b;stroke-width:7.5px;"/><path d="M7468.504,3562.889l-1650.667,-1364.05" style="fill:none;stroke:#b84a9b;stroke-width:7.5px;"/><path d="M7547.713,3546.151l-1650.709,-1364.052" style="fill:none;stroke:#b84a9b;stroke-width:7.5px;"/><path d="M7626.879,3529.411l-1650.709,-1364.054" style="fill:none;stroke:#b84a9b;stroke-width:7.5px;"/><path d="M7706.046,3512.673l-1650.709,-1364.054" style="fill:none;stroke:#b84a9b;stroke-width:7.5px;"/><path d="M7785.25,3495.931l-1650.704,-1364.05" style="fill:none;stroke:#b84a9b;stroke-width:7.5px;"/><path d="M7864.416,3479.193l-1650.704,-1364.054" style="fill:none;stroke:#ee287c;stroke-width:7.5px;"/><path d="M7943.587,3462.452l-1650.708,-1364.05" style="fill:none;stroke:#ee287c;stroke-width:7.5px;"/><path d="M8022.795,3445.714l-1650.708,-1364.052" style="fill:none;stroke:#ee287c;stroke-width:7.5px;"/><path d="M8101.962,3428.974l-1650.708,-1364.05" style="fill:none;stroke:#ee287c;stroke-width:7.5px;"/><path d="M8181.129,3412.236l-1650.708,-1364.054" style="fill:none;stroke:#ee287c;stroke-width:7.5px;"/><path d="M8260.337,3395.498l-1650.708,-1364.054" style="fill:none;stroke:#ee287c;stroke-width:7.5px;"/><path d="M8339.504,3378.756l-1650.708,-1364.054" style="fill:none;stroke:#ee287c;stroke-width:7.5px;"/><path d="M8418.671,3362.014l-1650.708,-1364.05" style="fill:none;stroke:#ee287c;stroke-width:7.5px;"/><path d="M5612.838,3958.285l-1650.709,-1364.054" style="fill:none;stroke:#673e98;stroke-width:7.5px;"/><path d="M5692.046,3941.547l-1650.709,-1364.052" style="fill:none;stroke:#673e98;stroke-width:7.5px;"/><path d="M5771.213,3924.807l-1650.709,-1364.05" style="fill:none;stroke:#673e98;stroke-width:7.5px;"/><path d="M5850.379,3908.069l-1650.709,-1364.054" style="fill:none;stroke:#673e98;stroke-width:7.5px;"/><path d="M5929.588,3891.331l-1650.709,-1364.054" style="fill:none;stroke:#673e98;stroke-width:7.5px;"/><path d="M6008.754,3874.589l-1650.709,-1364.054" style="fill:none;stroke:#673e98;stroke-width:7.5px;"/><path d="M6087.921,3857.847l-1650.709,-1364.05" style="fill:none;stroke:#673e98;stroke-width:7.5px;"/><path d="M6167.129,3841.11l-1650.709,-1364.054" style="fill:none;stroke:#84479c;stroke-width:7.5px;"/><path d="M6246.296,3824.374l-1650.709,-1364.054" style="fill:none;stroke:#84479c;stroke-width:7.5px;"/><path d="M6325.463,3807.632l-1650.709,-1364.054" style="fill:none;stroke:#84479c;stroke-width:7.5px;"/><path d="M6404.629,3790.894l-1650.667,-1364.054" style="fill:none;stroke:#84479c;stroke-width:7.5px;"/><path d="M6483.838,3774.152l-1650.709,-1364.05" style="fill:none;stroke:#84479c;stroke-width:7.5px;"/><path d="M6563.004,3757.414l-1650.709,-1364.054" style="fill:none;stroke:#84479c;stroke-width:7.5px;"/><path d="M6642.171,3740.672l-1650.667,-1364.048" style="fill:none;stroke:#84479c;stroke-width:7.5px;"/><path d="M6721.379,3723.936l-1650.708,-1364.054" style="fill:none;stroke:#89459a;stroke-width:7.5px;"/><path d="M6800.546,3707.194l-1650.708,-1364.05" style="fill:none;stroke:#89459a;stroke-width:7.5px;"/><path d="M6879.712,3690.457l-1650.708,-1364.054" style="fill:none;stroke:#89459a;stroke-width:7.5px;"/><path d="M6958.921,3673.719l-1650.708,-1364.054" style="fill:none;stroke:#89459a;stroke-width:7.5px;"/><path d="M7038.087,3656.977l-1650.708,-1364.054" style="fill:none;stroke:#89459a;stroke-width:7.5px;"/><path d="M7117.254,3640.235l-1650.708,-1364.05" style="fill:none;stroke:#89459a;stroke-width:7.5px;"/><path d="M7196.462,3623.499l-1650.708,-1364.05" style="fill:none;stroke:#89459a;stroke-width:7.5px;"/><path d="M7275.629,3606.761l-1650.708,-1364.054" style="fill:none;stroke:#89459a;stroke-width:7.5px;"/><path d="M7354.796,3590.019l-1650.708,-1364.054" style="fill:none;stroke:#b84a9b;stroke-width:7.5px;"/><path d="M7434.004,3573.281l-1650.708,-1364.054" style="fill:none;stroke:#b84a9b;stroke-width:7.5px;"/><path d="M7513.171,3556.539l-1650.708,-1364.05" style="fill:none;stroke:#b84a9b;stroke-width:7.5px;"/><path d="M7592.337,3539.797l-1650.708,-1364.05" style="fill:none;stroke:#b84a9b;stroke-width:7.5px;"/><path d="M7671.504,3523.059l-1650.667,-1364.048" style="fill:none;stroke:#b84a9b;stroke-width:7.5px;"/><path d="M7750.713,3506.324l-1650.709,-1364.054" style="fill:none;stroke:#b84a9b;stroke-width:7.5px;"/><path d="M7829.88,3489.582l-1650.709,-1364.054" style="fill:none;stroke:#ee287c;stroke-width:7.5px;"/><path d="M7909.046,3472.844l-1650.667,-1364.054" style="fill:none;stroke:#ee287c;stroke-width:7.5px;"/><path d="M7988.255,3456.106l-1650.709,-1364.054" style="fill:none;stroke:#ee287c;stroke-width:7.5px;"/><path d="M8067.421,3439.364l-1650.709,-1364.054" style="fill:none;stroke:#ee287c;stroke-width:7.5px;"/><path d="M8146.588,3422.622l-1650.709,-1364.048" style="fill:none;stroke:#ee287c;stroke-width:7.5px;"/><path d="M8225.795,3405.886l-1650.708,-1364.054" style="fill:none;stroke:#ee287c;stroke-width:7.5px;"/><path d="M8304.962,3389.144l-1650.708,-1364.05" style="fill:none;stroke:#ee287c;stroke-width:7.5px;"/><path d="M8384.129,3372.406l-1650.708,-1364.054" style="fill:none;stroke:#ee287c;stroke-width:7.5px;"/></g></g><g><clipPath id="_clip3"><path d="M6215.712,2728.286l163.5,0l0,434.391l-163.5,0l0,132.872l485.458,0l0,-132.872l-163.5,0l0,-434.391l163.5,0l0,-132.867l-485.458,0l0,132.867Z"/></clipPath><g clip-path="url(#_clip3)"><path d="M5647.379,3947.899l-1650.709,-1364.054" style="fill:none;stroke:#673e98;stroke-width:7.5px;"/><path d="M5726.587,3931.161l-1650.708,-1364.054" style="fill:none;stroke:#673e98;stroke-width:7.5px;"/><path d="M5805.754,3914.419l-1650.708,-1364.054" style="fill:none;stroke:#673e98;stroke-width:7.5px;"/><path d="M5884.921,3897.681l-1650.708,-1364.058" style="fill:none;stroke:#673e98;stroke-width:7.5px;"/><path d="M5964.129,3880.939l-1650.708,-1364.054" style="fill:none;stroke:#673e98;stroke-width:7.5px;"/><path d="M6043.296,3864.201l-1650.708,-1364.052" style="fill:none;stroke:#673e98;stroke-width:7.5px;"/><path d="M6122.462,3847.461l-1650.708,-1364.054" style="fill:none;stroke:#84479c;stroke-width:7.5px;"/><path d="M6201.629,3830.723l-1650.666,-1364.054" style="fill:none;stroke:#84479c;stroke-width:7.5px;"/><path d="M6280.837,3813.982l-1650.708,-1364.05" style="fill:none;stroke:#84479c;stroke-width:7.5px;"/><path d="M6360.004,3797.244l-1650.708,-1364.054" style="fill:none;stroke:#84479c;stroke-width:7.5px;"/><path d="M6439.171,3780.502l-1650.708,-1364.054" style="fill:none;stroke:#84479c;stroke-width:7.5px;"/><path d="M6518.379,3763.764l-1650.708,-1364.054" style="fill:none;stroke:#84479c;stroke-width:7.5px;"/><path d="M6597.546,3747.024l-1650.708,-1364.05" style="fill:none;stroke:#84479c;stroke-width:7.5px;"/><path d="M6676.712,3730.286l-1650.708,-1364.054" style="fill:none;stroke:#84479c;stroke-width:7.5px;"/><path d="M6755.921,3713.548l-1650.709,-1364.054" style="fill:none;stroke:#89459a;stroke-width:7.5px;"/><path d="M6835.087,3696.806l-1650.709,-1364.054" style="fill:none;stroke:#89459a;stroke-width:7.5px;"/><path d="M6914.254,3680.064l-1650.709,-1364.05" style="fill:none;stroke:#89459a;stroke-width:7.5px;"/><path d="M6993.462,3663.326l-1650.709,-1364.054" style="fill:none;stroke:#89459a;stroke-width:7.5px;"/><path d="M7072.629,3646.584l-1650.709,-1364.048" style="fill:none;stroke:#89459a;stroke-width:7.5px;"/><path d="M7151.796,3629.849l-1650.709,-1364.054" style="fill:none;stroke:#89459a;stroke-width:7.5px;"/><path d="M7231.004,3613.111l-1650.709,-1364.054" style="fill:none;stroke:#89459a;stroke-width:7.5px;"/><path d="M7310.171,3596.369l-1650.709,-1364.054" style="fill:none;stroke:#89459a;stroke-width:7.5px;"/><path d="M7389.338,3579.631l-1650.709,-1364.054" style="fill:none;stroke:#b84a9b;stroke-width:7.5px;"/><path d="M7468.504,3562.889l-1650.667,-1364.05" style="fill:none;stroke:#b84a9b;stroke-width:7.5px;"/><path d="M7547.713,3546.151l-1650.709,-1364.052" style="fill:none;stroke:#b84a9b;stroke-width:7.5px;"/><path d="M7626.879,3529.411l-1650.709,-1364.054" style="fill:none;stroke:#b84a9b;stroke-width:7.5px;"/><path d="M7706.046,3512.673l-1650.709,-1364.054" style="fill:none;stroke:#b84a9b;stroke-width:7.5px;"/><path d="M7785.25,3495.931l-1650.704,-1364.05" style="fill:none;stroke:#b84a9b;stroke-width:7.5px;"/><path d="M7864.416,3479.193l-1650.704,-1364.054" style="fill:none;stroke:#ee287c;stroke-width:7.5px;"/><path d="M7943.587,3462.452l-1650.708,-1364.05" style="fill:none;stroke:#ee287c;stroke-width:7.5px;"/><path d="M8022.795,3445.714l-1650.708,-1364.052" style="fill:none;stroke:#ee287c;stroke-width:7.5px;"/><path d="M8101.962,3428.974l-1650.708,-1364.05" style="fill:none;stroke:#ee287c;stroke-width:7.5px;"/><path d="M8181.129,3412.236l-1650.708,-1364.054" style="fill:none;stroke:#ee287c;stroke-width:7.5px;"/><path d="M8260.337,3395.498l-1650.708,-1364.054" style="fill:none;stroke:#ee287c;stroke-width:7.5px;"/><path d="M8339.504,3378.756l-1650.708,-1364.054" style="fill:none;stroke:#ee287c;stroke-width:7.5px;"/><path d="M8418.671,3362.014l-1650.708,-1364.05" style="fill:none;stroke:#ee287c;stroke-width:7.5px;"/><path d="M5612.838,3958.285l-1650.709,-1364.054" style="fill:none;stroke:#673e98;stroke-width:7.5px;"/><path d="M5692.046,3941.547l-1650.709,-1364.052" style="fill:none;stroke:#673e98;stroke-width:7.5px;"/><path d="M5771.213,3924.807l-1650.709,-1364.05" style="fill:none;stroke:#673e98;stroke-width:7.5px;"/><path d="M5850.379,3908.069l-1650.709,-1364.054" style="fill:none;stroke:#673e98;stroke-width:7.5px;"/><path d="M5929.588,3891.331l-1650.709,-1364.054" style="fill:none;stroke:#673e98;stroke-width:7.5px;"/><path d="M6008.754,3874.589l-1650.709,-1364.054" style="fill:none;stroke:#673e98;stroke-width:7.5px;"/><path d="M6087.921,3857.847l-1650.709,-1364.05" style="fill:none;stroke:#673e98;stroke-width:7.5px;"/><path d="M6167.129,3841.11l-1650.709,-1364.054" style="fill:none;stroke:#84479c;stroke-width:7.5px;"/><path d="M6246.296,3824.374l-1650.709,-1364.054" style="fill:none;stroke:#84479c;stroke-width:7.5px;"/><path d="M6325.463,3807.632l-1650.709,-1364.054" style="fill:none;stroke:#84479c;stroke-width:7.5px;"/><path d="M6404.629,3790.894l-1650.667,-1364.054" style="fill:none;stroke:#84479c;stroke-width:7.5px;"/><path d="M6483.838,3774.152l-1650.709,-1364.05" style="fill:none;stroke:#84479c;stroke-width:7.5px;"/><path d="M6563.004,3757.414l-1650.709,-1364.054" style="fill:none;stroke:#84479c;stroke-width:7.5px;"/><path d="M6642.171,3740.672l-1650.667,-1364.048" style="fill:none;stroke:#84479c;stroke-width:7.5px;"/><path d="M6721.379,3723.936l-1650.708,-1364.054" style="fill:none;stroke:#89459a;stroke-width:7.5px;"/><path d="M6800.546,3707.194l-1650.708,-1364.05" style="fill:none;stroke:#89459a;stroke-width:7.5px;"/><path d="M6879.712,3690.457l-1650.708,-1364.054" style="fill:none;stroke:#89459a;stroke-width:7.5px;"/><path d="M6958.921,3673.719l-1650.708,-1364.054" style="fill:none;stroke:#89459a;stroke-width:7.5px;"/><path d="M7038.087,3656.977l-1650.708,-1364.054" style="fill:none;stroke:#89459a;stroke-width:7.5px;"/><path d="M7117.254,3640.235l-1650.708,-1364.05" style="fill:none;stroke:#89459a;stroke-width:7.5px;"/><path d="M7196.462,3623.499l-1650.708,-1364.05" style="fill:none;stroke:#89459a;stroke-width:7.5px;"/><path d="M7275.629,3606.761l-1650.708,-1364.054" style="fill:none;stroke:#89459a;stroke-width:7.5px;"/><path d="M7354.796,3590.019l-1650.708,-1364.054" style="fill:none;stroke:#b84a9b;stroke-width:7.5px;"/><path d="M7434.004,3573.281l-1650.708,-1364.054" style="fill:none;stroke:#b84a9b;stroke-width:7.5px;"/><path d="M7513.171,3556.539l-1650.708,-1364.05" style="fill:none;stroke:#b84a9b;stroke-width:7.5px;"/><path d="M7592.337,3539.797l-1650.708,-1364.05" style="fill:none;stroke:#b84a9b;stroke-width:7.5px;"/><path d="M7671.504,3523.059l-1650.667,-1364.048" style="fill:none;stroke:#b84a9b;stroke-width:7.5px;"/><path d="M7750.713,3506.324l-1650.709,-1364.054" style="fill:none;stroke:#b84a9b;stroke-width:7.5px;"/><path d="M7829.88,3489.582l-1650.709,-1364.054" style="fill:none;stroke:#ee287c;stroke-width:7.5px;"/><path d="M7909.046,3472.844l-1650.667,-1364.054" style="fill:none;stroke:#ee287c;stroke-width:7.5px;"/><path d="M7988.255,3456.106l-1650.709,-1364.054" style="fill:none;stroke:#ee287c;stroke-width:7.5px;"/><path d="M8067.421,3439.364l-1650.709,-1364.054" style="fill:none;stroke:#ee287c;stroke-width:7.5px;"/><path d="M8146.588,3422.622l-1650.709,-1364.048" style="fill:none;stroke:#ee287c;stroke-width:7.5px;"/><path d="M8225.795,3405.886l-1650.708,-1364.054" style="fill:none;stroke:#ee287c;stroke-width:7.5px;"/><path d="M8304.962,3389.144l-1650.708,-1364.05" style="fill:none;stroke:#ee287c;stroke-width:7.5px;"/><path d="M8384.129,3372.406l-1650.708,-1364.054" style="fill:none;stroke:#ee287c;stroke-width:7.5px;"/></g></g><g><clipPath id="_clip4"><path d="M7203.254,2595.419l0,247.463c0,82.654 14.834,180.758 21.917,254.466l-3.708,0l-59.917,-153.857l-147.333,-348.071l-162.417,0l0,700.13l151.083,0l0,-248.356c0,-82.361 -14.792,-176.162 -21.917,-253.579l3.708,0l59.958,153.092l147.292,348.842l162.417,0l0,-700.13l-151.083,0Z"/></clipPath><g clip-path="url(#_clip4)"><path d="M5647.379,3947.899l-1650.709,-1364.054" style="fill:none;stroke:#673e98;stroke-width:7.5px;"/><path d="M5726.587,3931.161l-1650.708,-1364.054" style="fill:none;stroke:#673e98;stroke-width:7.5px;"/><path d="M5805.754,3914.419l-1650.708,-1364.054" style="fill:none;stroke:#673e98;stroke-width:7.5px;"/><path d="M5884.921,3897.681l-1650.708,-1364.058" style="fill:none;stroke:#673e98;stroke-width:7.5px;"/><path d="M5964.129,3880.939l-1650.708,-1364.054" style="fill:none;stroke:#673e98;stroke-width:7.5px;"/><path d="M6043.296,3864.201l-1650.708,-1364.052" style="fill:none;stroke:#673e98;stroke-width:7.5px;"/><path d="M6122.462,3847.461l-1650.708,-1364.054" style="fill:none;stroke:#84479c;stroke-width:7.5px;"/><path d="M6201.629,3830.723l-1650.666,-1364.054" style="fill:none;stroke:#84479c;stroke-width:7.5px;"/><path d="M6280.837,3813.982l-1650.708,-1364.05" style="fill:none;stroke:#84479c;stroke-width:7.5px;"/><path d="M6360.004,3797.244l-1650.708,-1364.054" style="fill:none;stroke:#84479c;stroke-width:7.5px;"/><path d="M6439.171,3780.502l-1650.708,-1364.054" style="fill:none;stroke:#84479c;stroke-width:7.5px;"/><path d="M6518.379,3763.764l-1650.708,-1364.054" style="fill:none;stroke:#84479c;stroke-width:7.5px;"/><path d="M6597.546,3747.024l-1650.708,-1364.05" style="fill:none;stroke:#84479c;stroke-width:7.5px;"/><path d="M6676.712,3730.286l-1650.708,-1364.054" style="fill:none;stroke:#84479c;stroke-width:7.5px;"/><path d="M6755.921,3713.548l-1650.709,-1364.054" style="fill:none;stroke:#89459a;stroke-width:7.5px;"/><path d="M6835.087,3696.806l-1650.709,-1364.054" style="fill:none;stroke:#89459a;stroke-width:7.5px;"/><path d="M6914.254,3680.064l-1650.709,-1364.05" style="fill:none;stroke:#89459a;stroke-width:7.5px;"/><path d="M6993.462,3663.326l-1650.709,-1364.054" style="fill:none;stroke:#89459a;stroke-width:7.5px;"/><path d="M7072.629,3646.584l-1650.709,-1364.048" style="fill:none;stroke:#89459a;stroke-width:7.5px;"/><path d="M7151.796,3629.849l-1650.709,-1364.054" style="fill:none;stroke:#89459a;stroke-width:7.5px;"/><path d="M7231.004,3613.111l-1650.709,-1364.054" style="fill:none;stroke:#89459a;stroke-width:7.5px;"/><path d="M7310.171,3596.369l-1650.709,-1364.054" style="fill:none;stroke:#89459a;stroke-width:7.5px;"/><path d="M7389.338,3579.631l-1650.709,-1364.054" style="fill:none;stroke:#b84a9b;stroke-width:7.5px;"/><path d="M7468.504,3562.889l-1650.667,-1364.05" style="fill:none;stroke:#b84a9b;stroke-width:7.5px;"/><path d="M7547.713,3546.151l-1650.709,-1364.052" style="fill:none;stroke:#b84a9b;stroke-width:7.5px;"/><path d="M7626.879,3529.411l-1650.709,-1364.054" style="fill:none;stroke:#b84a9b;stroke-width:7.5px;"/><path d="M7706.046,3512.673l-1650.709,-1364.054" style="fill:none;stroke:#b84a9b;stroke-width:7.5px;"/><path d="M7785.25,3495.931l-1650.704,-1364.05" style="fill:none;stroke:#b84a9b;stroke-width:7.5px;"/><path d="M7864.416,3479.193l-1650.704,-1364.054" style="fill:none;stroke:#ee287c;stroke-width:7.5px;"/><path d="M7943.587,3462.452l-1650.708,-1364.05" style="fill:none;stroke:#ee287c;stroke-width:7.5px;"/><path d="M8022.795,3445.714l-1650.708,-1364.052" style="fill:none;stroke:#ee287c;stroke-width:7.5px;"/><path d="M8101.962,3428.974l-1650.708,-1364.05" style="fill:none;stroke:#ee287c;stroke-width:7.5px;"/><path d="M8181.129,3412.236l-1650.708,-1364.054" style="fill:none;stroke:#ee287c;stroke-width:7.5px;"/><path d="M8260.337,3395.498l-1650.708,-1364.054" style="fill:none;stroke:#ee287c;stroke-width:7.5px;"/><path d="M8339.504,3378.756l-1650.708,-1364.054" style="fill:none;stroke:#ee287c;stroke-width:7.5px;"/><path d="M8418.671,3362.014l-1650.708,-1364.05" style="fill:none;stroke:#ee287c;stroke-width:7.5px;"/><path d="M5612.838,3958.285l-1650.709,-1364.054" style="fill:none;stroke:#673e98;stroke-width:7.5px;"/><path d="M5692.046,3941.547l-1650.709,-1364.052" style="fill:none;stroke:#673e98;stroke-width:7.5px;"/><path d="M5771.213,3924.807l-1650.709,-1364.05" style="fill:none;stroke:#673e98;stroke-width:7.5px;"/><path d="M5850.379,3908.069l-1650.709,-1364.054" style="fill:none;stroke:#673e98;stroke-width:7.5px;"/><path d="M5929.588,3891.331l-1650.709,-1364.054" style="fill:none;stroke:#673e98;stroke-width:7.5px;"/><path d="M6008.754,3874.589l-1650.709,-1364.054" style="fill:none;stroke:#673e98;stroke-width:7.5px;"/><path d="M6087.921,3857.847l-1650.709,-1364.05" style="fill:none;stroke:#673e98;stroke-width:7.5px;"/><path d="M6167.129,3841.11l-1650.709,-1364.054" style="fill:none;stroke:#84479c;stroke-width:7.5px;"/><path d="M6246.296,3824.374l-1650.709,-1364.054" style="fill:none;stroke:#84479c;stroke-width:7.5px;"/><path d="M6325.463,3807.632l-1650.709,-1364.054" style="fill:none;stroke:#84479c;stroke-width:7.5px;"/><path d="M6404.629,3790.894l-1650.667,-1364.054" style="fill:none;stroke:#84479c;stroke-width:7.5px;"/><path d="M6483.838,3774.152l-1650.709,-1364.05" style="fill:none;stroke:#84479c;stroke-width:7.5px;"/><path d="M6563.004,3757.414l-1650.709,-1364.054" style="fill:none;stroke:#84479c;stroke-width:7.5px;"/><path d="M6642.171,3740.672l-1650.667,-1364.048" style="fill:none;stroke:#84479c;stroke-width:7.5px;"/><path d="M6721.379,3723.936l-1650.708,-1364.054" style="fill:none;stroke:#89459a;stroke-width:7.5px;"/><path d="M6800.546,3707.194l-1650.708,-1364.05" style="fill:none;stroke:#89459a;stroke-width:7.5px;"/><path d="M6879.712,3690.457l-1650.708,-1364.054" style="fill:none;stroke:#89459a;stroke-width:7.5px;"/><path d="M6958.921,3673.719l-1650.708,-1364.054" style="fill:none;stroke:#89459a;stroke-width:7.5px;"/><path d="M7038.087,3656.977l-1650.708,-1364.054" style="fill:none;stroke:#89459a;stroke-width:7.5px;"/><path d="M7117.254,3640.235l-1650.708,-1364.05" style="fill:none;stroke:#89459a;stroke-width:7.5px;"/><path d="M7196.462,3623.499l-1650.708,-1364.05" style="fill:none;stroke:#89459a;stroke-width:7.5px;"/><path d="M7275.629,3606.761l-1650.708,-1364.054" style="fill:none;stroke:#89459a;stroke-width:7.5px;"/><path d="M7354.796,3590.019l-1650.708,-1364.054" style="fill:none;stroke:#b84a9b;stroke-width:7.5px;"/><path d="M7434.004,3573.281l-1650.708,-1364.054" style="fill:none;stroke:#b84a9b;stroke-width:7.5px;"/><path d="M7513.171,3556.539l-1650.708,-1364.05" style="fill:none;stroke:#b84a9b;stroke-width:7.5px;"/><path d="M7592.337,3539.797l-1650.708,-1364.05" style="fill:none;stroke:#b84a9b;stroke-width:7.5px;"/><path d="M7671.504,3523.059l-1650.667,-1364.048" style="fill:none;stroke:#b84a9b;stroke-width:7.5px;"/><path d="M7750.713,3506.324l-1650.709,-1364.054" style="fill:none;stroke:#b84a9b;stroke-width:7.5px;"/><path d="M7829.88,3489.582l-1650.709,-1364.054" style="fill:none;stroke:#ee287c;stroke-width:7.5px;"/><path d="M7909.046,3472.844l-1650.667,-1364.054" style="fill:none;stroke:#ee287c;stroke-width:7.5px;"/><path d="M7988.255,3456.106l-1650.709,-1364.054" style="fill:none;stroke:#ee287c;stroke-width:7.5px;"/><path d="M8067.421,3439.364l-1650.709,-1364.054" style="fill:none;stroke:#ee287c;stroke-width:7.5px;"/><path d="M8146.588,3422.622l-1650.709,-1364.048" style="fill:none;stroke:#ee287c;stroke-width:7.5px;"/><path d="M8225.795,3405.886l-1650.708,-1364.054" style="fill:none;stroke:#ee287c;stroke-width:7.5px;"/><path d="M8304.962,3389.144l-1650.708,-1364.05" style="fill:none;stroke:#ee287c;stroke-width:7.5px;"/><path d="M8384.129,3372.406l-1650.708,-1364.054" style="fill:none;stroke:#ee287c;stroke-width:7.5px;"/></g></g></g></svg>